<mxfile host="app.diagrams.net" modified="2023-12-03T22:33:48.471Z" agent="Mozilla/5.0 (Windows NT 10.0; Win64; x64) AppleWebKit/537.36 (KHTML, like Gecko) Chrome/119.0.0.0 Safari/537.36 Edg/119.0.0.0" etag="lQZ2bsD10Ic8VClSKgXU" version="22.1.5" type="device" pages="2">
  <diagram name="Страница — 1" id="o3sYmgAIau1fM3dsohi6">
    <mxGraphModel dx="2707" dy="1400" grid="1" gridSize="10" guides="1" tooltips="1" connect="1" arrows="1" fold="1" page="1" pageScale="1" pageWidth="3300" pageHeight="2339" math="0" shadow="0">
      <root>
        <mxCell id="0" />
        <mxCell id="1" parent="0" />
        <mxCell id="FX8J6G3fWPX2P3Sihh6O-7" value="" style="shape=image;imageAspect=0;aspect=fixed;verticalLabelPosition=bottom;verticalAlign=top;image=data:image/png,iVBORw0KGgoAAAANSUhEUgAAA48AAALnCAYAAAApuXKMAAAAAXNSR0IArs4c6QAACed0RVh0bXhmaWxlACUzQ214ZmlsZSUyMGhvc3QlM0QlMjJhcHAuZGlhZ3JhbXMubmV0JTIyJTIwbW9kaWZpZWQlM0QlMjIyMDIzLTEyLTAzVDIyJTNBMzElM0EyMC40MzBaJTIyJTIwYWdlbnQlM0QlMjJNb3ppbGxhJTJGNS4wJTIwKFdpbmRvd3MlMjBOVCUyMDEwLjAlM0IlMjBXaW42NCUzQiUyMHg2NCklMjBBcHBsZVdlYktpdCUyRjUzNy4zNiUyMChLSFRNTCUyQyUyMGxpa2UlMjBHZWNrbyklMjBDaHJvbWUlMkYxMTkuMC4wLjAlMjBTYWZhcmklMkY1MzcuMzYlMjBFZGclMkYxMTkuMC4wLjAlMjIlMjBldGFnJTNEJTIyTU5jVWxpUWYwZDg3TF9SbmUwUWolMjIlMjB2ZXJzaW9uJTNEJTIyMjIuMS41JTIyJTIwdHlwZSUzRCUyMmRldmljZSUyMiUyMHBhZ2VzJTNEJTIyMiUyMiUzRSUzQ2RpYWdyYW0lMjBpZCUzRCUyMlkweTNjS3YtNEEyYUlNSElhMGtpJTIyJTIwbmFtZSUzRCUyMlBhZ2UtMSUyMiUzRTdadGRtNW82RUlCJTJGRFplN0R3bkl4eVVxJTJCM0ZPMWZPNGJOdGJLbG5sT1FnZWpOWHRyMjhJQ1I4bWJXbEx0THJIQzhRaEJIaG5Nc3drbzJhTTFvZjdQTnlzSmxtRUVnM3EwVUV6eGhxRTBMUk44bFZJWGtzSmNFMjlsQ3p6T0dLeVd2QVVmMEZNeUp2dDRnaHRXdzF4bGlVNDNyU0ZpeXhOMFFLM1pHR2VaJTJGdDJzNWNzYVY5MUV5NlJJSGhhaElrbyUyRlJCSGVGVktuWUZleXg5UXZGenhLd09kSFZtSHZERVRiRmRobE8wYklzUFhqRkdlWmJqY1d4OUdLQ25vY1M3bGVYZmZPRnJkV0k1UzNPVUVXSjd3T1V4MjdObllmZUZYJTJGckI1dGtzalZMVFhOV080WDhVWVBXM0NSWEYwVCUyRlJMWkN1OFRzZ3ZRSGJGNjdOYiUyQm94eWpBNE5FYnVmZTVTdEVjNWZTUk4yOUdiQWFUSHp1REVzSnRqWHNGMXVDNnNHYU50Z3dwQXBlRm4xWGpNZ093eURISWx4VlVncTAlMkZzZEpPWUZJSUhPS1lrNGc1NlJiSEdlJTJGWXRHV1pMbFJCS2hsM0NYa0JzZXZtUXBaZzRRd0ZOYWs2TU1uU1dnZTM3eXlaZnVCWnJoQ1JqSlUlMkJIdnNVcXpGQldnNGlRNUVvVkp2RXpKendWaGhZaDhXRENLaVJ2MzJJRjFIRVhGWmFUS2FhdnZiSHF3Skhyb3c4MDU5Z1Zic0FrN2tGTm93bzdBem5zT0htWnphciUyQjZSbkI1ZERzc3Q3WkdDRGxOQ2FCYm44b2gzZHBVNHRDdHglMkZiTHJ0eXlRNExFb2tBJTJGNVdSdmlTbEs2NzlkRVNvTUh6Sk1nNnlIYkx1Sk1URjhYT0NhaENrSlJkWUY2S3FsZ3ZHVm9CZjg1NDJ1VGpZQ1pEWmk5bUVpcm1BaVl5JTJGd1N3T0I0QmFBVyUyRkp0dkJsdFZGQyUyRnF3MEExR2pEMVFWdCUyRkRPZiUyRmVXUGduckUxc05NJTJGMzljJTJGZFM0QWhKTjJvcGVXeTRRTkRuMzMxTXRXdUc2SUpCJTJCMm03b28lMkJySEltaSUyQnZXRm51TGVEWTNYWlhOUWFlb29jb2R0M2l0azF6bWpxU2lPMlJ6ODlZUVZkdkJrY2lFUzU3TGVJOXAyaG5qSnlFOGtab2pFcUk5ZDNJbnRlY2hLJTJGcTR6Y0plZTdBcmtxZlQ4Rk9USGR2Unh5MXZHN1ElMkJibWRBbTVYdElzVjB4UlA4em1mejlPNzA5RDhPalYzb3NwZ2c1RWdhUEtGc1c4ZFR6MzdvSXJ3aWw1bTZqREtlWjRjMzgwbTB6ODZkZ2ZYeEZVV1lDdkNtcmxPWnE1MnZQdzNlUElDeDVuMCUyQnVoS25zSkthUXE1azJYaXRMdU1wTmdTdEtaZmtDZUs1ODVBVWlaODFRSDhseHB6QWxBeWh5bU9wRG55bXJVZzVUNlNIVWd4U1JuN250amZ5N2d2Tm8xcVM2JTJCVmJZaTFROSUyRk1WV2ljJTJCWnZoajRVRndTaFpLNU9uUUxFZ0pZdk9tMDNZZHJTQXAlMkYzTGpEY2JDbUhjbWxqYzlDYUsxTjhyY3JUZVZma05zcmUlMkJDTFdoV1REdng1NDlKSU5Wek8wRGUyTVp0UEElMkY2aG8yZnlQbk5IdXBBUmJGa1gzb2dKSkZFMlhqdmlES0RSakNNUko3VHY2NlNsRDZWSlJJMTB2N2NtOHp4QllxMllLN0I4amhRbzloaGdaVG1kaiUyRnpLcWJNd1RtcldxSXBzcTZXOXE0SGt5dklpUXNpY0ZkQmtEbHF1SyUyRnpsbTMwMjFUc1V3MmtDN1Z1JTJGMTh3WVU1JTJCU0R4JTJCRGRHJTJGTXBCanluVHhGbjhYODZTb2ZmaU5KcENZeEpDOUlNV29RMjVnVnBSR0x4RWpXeWY2YzF5MlJZNVV4ZDB3WjRaVnRWOFZidTA1YkRRYVByUm5lc01LNHFsZk9GWmsxNXMlMkZPanJocFAxU25qdUY1RGhYVUN5YjJGWkc3S2tGWHIlMkZFTHhCJTJGbFolMkYzV0JIbXY4QThUd3Z3SSUzRCUzQyUyRmRpYWdyYW0lM0UlM0NkaWFncmFtJTIwaWQlM0QlMjJzdG1kaEhnbGVfc0w0SGFqSkJqSCUyMiUyMG5hbWUlM0QlMjIlRDAlQTElRDElODIlRDElODAlRDAlQjAlRDAlQkQlRDAlQjglRDElODYlRDAlQjAlMjAlRTIlODAlOTQlMjAyJTIyJTNFblpLeERvSXdFSWFmcG52dEVhS3JGWFZ4WW5CdWFJVW1oU09sQnZUcEJRdGl3MEEwYWRMayUyQjclMkZjWFM4bHdNdnVaRVZkWEZBcVF4aVZIWUVEWVd3VHM2aSUyRkJ2THdaQnRSRDNLcjVTak5JTlZQTmNKSnUydXBta0IwaU1icE9vUVpWcFhLWE1DRXRkaUcyZzFOMkxVV3VWcUFOQk5tU2E5YXVzSlRBRXJuNEt4MFhveXQlMkIyam5rMUpNOXFnMmhaRFlmaUZJQ0lzSmcwNFEySk9CaFFlNFJYU3IyaVNYSFZkbTJQNjBXTiUyRjMlMkJIJTJCQnolMkJPdHF0eHZOWUgzMXNyNGJ5ZjRPWkM4QUElM0QlM0QlM0MlMkZkaWFncmFtJTNFJTNDJTJGbXhmaWxlJTNF/SySAwAAIABJREFUeF7s3QusNVV9P+4xbaxaBEutQgDTH7TVEMUqsS2UaCuCvcSGS6B4Q0ALiECwCKUg2IIKQakNIhcviIAtSlTSJrWFUm8IVrxRGqJGqC0gaFMUhF5szPvPd/5Zp+vMO/vsfc47a5+99jwnMb6cs/esWc9as2d/Zq1Z87jGDwECBAgQIECAAAECBAgQmCLwOEIECBAgQIAAAQIECBAgQGCaQITHLdNe5O8ECBAgQIAAAQIECBAgMG6BNjxu2SI/brQbPO5xjwvAjb7d+wgQIDBRID5f5vHjM2weysrYLAHn6c2Sr7PcsfWXsdW3zl65OHsd/UV43Mb2cNBtI6C3EyAgPOoDBAoKOE8XxF3CTY+tv4ytvkvYZedaJeFxAG4H3QCINkGAQK+AkUcdg8C2CzhPb7vhmLYwtv4ytvqOqS+XqKvwOICqg24ARJsgQEB41AcIFBJwni4Eu6SbHVt/GVt9l7Tbzq1awuMA1A66ARBtggAB4VEfIFBIwHm6EOySbravv7zjHe9oTj/99FU1Puigg5qrrrqq2WGHHVb9/vWvf33z4IMPrvzt4x//eHPooYf2an3sYx9r7r777q22HS8+/vjjm8suu6y4cre+3f298MILm9NOO23Vfqz1mnvvvbet7957771q/8PwnnvuaS644ILmqKOOam644Yat6hamb3vb29q/33777av+vsceezTXXHNN88ADD7Re8e999tmnfc1tt93WvPrVr25iX2+66abm8ssv32rbL3jBC5rw3m233YqbLnMBwuMAreukNACiTRAgIDzqAwQKCThPF4Jd0s1OCo+33nrrqrDYDYkpxESAiZ8IOCncJKp4T/zkoTBCVXfb86TN6xuhMA9mDz/8cBvk9t1335UAGft7/fXXrwSx9JqddtqprVcKjw899NCqgJfCY173CH0nn3xyc/HFF69YpfefccYZzSGHHNJLkZvFC7r7GL+bZTvzdF6WsoTHAVrSSWkARJsgQEB41AcIFBJwni4Eu6SbnTU89oWTCDXpJ0bZuiOHixwe+4JiCsTnnHNOc+WVV7ZVO+aYY5pzzz13VTAOi/T7XXfdtf13hMlHH310JXAPGR7zfY196gvf3fbJ97Eb6pe0KxeplvA4AGvfh0zf1ahJV0DWO4zfvRLTdzDOMp2gOx1g0vSLLlHUrTsdYN5TAdKHRj7loW9axQDNW2wT3at7eUGzTBkptmM2vFAC81wwJ47t3XfffeXqcpoGdNxxx636XX6VuHssdj8L0jZiWlb+k0/H6vsyFb+LqUcxLenqq69e2a++fYrtdvd9GT4jFqojVr4zfefpdE5e61w4qf92+3l35CVx9b0/Tb1LX177zqnx/nRO6/t7dxuVN8/C7f6s4bH72RP94MQTT2xOOOGEJgJU+qzMp0kucnjsGwXsNk58P4nP5e503TzMHXHEEW14jKmuEZ5jOmmMIA4ZHlOojW3HTz6FNe2zkccyh5bwOIBr90MmDr6+KQvTwuNGh/G7B+Os0wnyEDrpalMfz6QPvr4rbAPw9m7iTW96UzufvtYrR+kEE5Xba6+9Vt1LMMuUkVKutrt4AvMMj93PkuiL559/fvOsZz2rueSSS9r7evIvDo888kh7HB522GErfbjbf2eZktT9TOlefMuDYfoyvuOOO666dyV/Td/9Nr5ELF7fnucerRUe1zoXzvJlOuqRjov4d0y/S2Gh7/3dY6TvnJrbLGLYmGfbbUZZGw2P0d6XXnrpyudltN0BBxywaurlpPbs3k8Z9Y778yZN2xzSJdU39j+NME66L3BSeMyDdAqPMToZ9yfGPY5Rl+uuu66953HW77vTBjnSd9cou+/eU5/7Q/aS/9tWb3ic9GHZvbLbvXk4H/npu7E4ik1Xm9dz43Ha3b4re5Ou2M1zJKz7ITNpysI8wuOkIfnudIL4wrfWCOZaHyB9H3z5h8nNN9+86sbw9OGXX4FN/SCV89znPre56KKLmu7V1LyfpL/F1bwPfOADzXe/+92VEdC873VHHKL8+OnerB59JD7Un/KUp6x88U19/Nhjj125ehgBNT8mYlvp5BB1jQ/F+NCKL9lxtbH7+r6Am04wccUs6hhTQeKDepYpI270LvNhuKhbnWd47B73cTzExY04vtMUpfT5FleU+64ih2P++1nOJ/lnSt+9P93wGF9utttuu3ZKVPoSkr9m0v1Dk/Z3Udvefg0nMGt4nLX/dvcshYQYLe+O3nfv50pfsuP/o/9uJDzO8iV/OL3xbWnW8Ng9Z/d9t+0uerOIFwPy8NjXX/MesN7wGN+B0udzbGc94XGtex7TsXrjjTe2u3fggQdutaiP8Fjm2N1weOyObqUGSlegp938O+kLQr46VbfKk67sxes2s4PkHzJrTVmYR3icdTpBNzxu68hj+jA88sgjV934nNo5rsTGB1KEpf33338lmEXbxe8ixMVJNO8XKZillbHyMuI9aSpd1zUftYht5Dd+d33yL8L5VbNueMyn0KXw+Pa3v70588wz28C45557rgqb+ev7wmNebn5lctar3GU+Dmx1EQXmGR7zz6+8T8e00ThG49iNRQnScZz+3b0yHsdZutJ83333TV0MIR3b8aU7X4QhtUdfeDzvvPOas88+eyXU5hd++hZOWMS2tU/zE5g1PHbPhbN8Jsc5KH3hjv6ejzxNen9+LoovyClI9oksYtiYX8ttTkmzhsf8+0dckO5+t+q7oL+I7ZnqO+m7YN7Ho0VmvecxXXRMx0HMYokLf7OOPK4VHrsX9ftC72Zmg83pufMpdcPhcVrnf+9737vmylF94XFaI0+6stcXHud5U2z+IbPWlIWhwmN3GD/qn65szXpFKD7gutuZdUnovtHeSfdL9u1P+nCKL6A777zzqi+Wa7VbGjWIgNqdVtG9bzTNr+9+EG4kPMaUi0984hPtERlBMYXHuMoVN2jHh2D+pbv7+m54zF8bf4t9iqvVsR1Xk+fzwVdTKfMMj/kFlP3222/VCHv00bhYkk7Q22+//UqQ7IbHvB/Hl+k4Hrv3POazBfLPlL5ZI33hMUbrYwpUWiQhvmRE+IwLP91Qm29/1nu7a+oj9nW6wHrueczPhbPcs5t/hnc/32cNj911BPJZOH3n3HnOrpquu3yvmDU8di9Wp4tmaYZQXxib9v25+9iPeejm9Z1060w+02OW26O6ATONyna/a85ya0PXoDtgFX/fSK6Yh+0ylrHh8JgW9Jh0It7IyGP+xaX7PJm1ruz1hcd5NlZ+0K01ZWGo8LjWdNP1hMe0nVmurOaes0yxyU+EeR9J/aY7bTVN28zDY4x8dJ8DFO+L8Jhf2Y19Syfv+HLbvfKXf/Hs+nT/uzttNb70xk3Y6f9TeIz/fs5znrMyxz59Yeh7fTc89n0ZSV8E+kZp5tmXlbV4AvMOj+lYipHGCHzxWZxPs47jIe5/jJ9JI4/d8JhfEc5HJdMXrDjuvvzlL7f3xMSIfncGyqTwmAfYNF0whcd8WfnUqmt9Pi5ey9ujIQVmGXnsOxfOcn7sC3fp4sik9+ffkdYz8rieWUJD+o1tW5PC41rPeZz03agbtCaFx757Hud1satb3+6ifX2DC93X5BcE+wYC1lpUatKjOvoGS+IclG5Hyu9z7Nu+1VbLHLkbDo+xO917y/JOPumex3T/26RwmX9JyKu81pW9RQmPfeGwLwylUbFUv74PkvVcicnv49noPY/dD7e1utta4bH7xXDSl7XUzjG6kX9o5PW+5ZZbVo1ep3rmox/py+dGRx7TBYs87MYHYJq2Gld/497KuJqYVlCL90R4TUExfZGOv/e9fpZnPE2bcpdfPHHPY5kPw0Xd6rzDY/S1CHCxvPrBBx/cLtYQn/XxBTfuf4zfp4t7G73nMb9aH1fZ88+USVfq031k3dH59Jmzyy67rDyHbNL5RXhc1F5efr9mCY9p9CKfOj0tPE4KnGl2zKQLgnmfn+WCbOxbmuqXLkDGuWoei6mUb53FK6GvvyzeXg63R2Or73By49zSNoXHLln+AbiRkce1rqitdWVvUcJj3xX1bp26X5omnQQ2Gh77Tn7dqzF9IXc9VzNnDY9pVCD26W1ve1tz1llnraxCl4fH/P7FvN/kU5/Tqo577733ygID6ctkNzB3p5Gsdc9jXx/Op77deeed7chjfv9XCo8RGmMf4yeNdvS9Pg+Pa40+p+l33fs0J12tK/2Rlfa1e+Wvb/W37j52Lyzl+xoXmaI/xKhVd9uzLD+/1kWrVM6s09YnvW7a9OHuFdfcJHfLL6h1R5zzq7T537rT0eYdHtMoeoTEfNXIWOH4sccea0f+U5/umzrUnfI0y2dZ9zOl+7k4aeQxH7mMC0DJNO1X+rzIzxERMvtW5St9PNn+5grMGh7Xe8/jtKly3VszQqF7jKw3PKbz/GY+VH5zW7N86WMLU2Orb/ketNwl9IbHtYabYypQdzGRRJRf1R3ynsdpV/biC8S0+yVLNmM66NYzZSEf6er7Mj7LF65Up76r/9OmE/Sttpqf0GLbk5ZrXutEl3+xjyBw6qmntifKdH9SmpaRvlTfddddbTlxA3U8szH/4px/CY/fH3300U2sqhVf/OInn9I6bbXVdHV22sjDpBHA/D6WPDxGqI15/VGvGI1MU+W6973kx0j3noj4W/fL8ixTRkr26UkXZCZd7Eiu8b48cKS6TZqSMm0ltb465osN9V30SP3moYce6n3uUx4w4zjovi7VsfsoiPx9+bO78otG6YJJ6gfpWMlHrrur8XYXW+p+GZ13eJz0xbTv4li8thvm+57z2LeQQT7bIUY64ydfRCHNXonPx3wFy75g3xdiY3vdi461PQu29DE+pu3PGh674S7+u++e3Ti/RX/NP/dzz3QRM251iH/n9/zO+pzHNFWw75w7qc+PqU1L1nVsYWps9S3Zd8aw7d7w2DfS0b1S1v2C033PRkYeu6NyeTjqXmHrm8fcF4jm0YgOuo0rTxvh2fiWvXNbBWYZJU039sexG/fIdZep32h4nHXksBt04mJEfNFLFy3SSm9dixQQu69Ln3P5RY9p04RzpwhO+SIB0wJX33153WNiM8LjtvYd7yewaALO04vWIou9P2PrL2Or72L3vsXfu97w2Hc1uW86Wfe+xvyG2kn3PKYRpxiZXOvG40Q3bSprWlghTWtMIxnr+fK5rc3koNu4oPC4cbvS75wUHrttNm0xq/WMom+kTpOuyvctJd7d/kanrebbyesXv89H7CfdL7XWTIlFGHncSDt4D4FFFnCeXuTWWbx9G1t/GVt9F6/H1bVHE8NjXdXY3L110G2uv9LLCMwaHqctZrVWeOze87jeleUmjezNevFoW8Nj36Ng8mnJk8LjWtPQwiSfym7ksUz/ttVxCThPj6u9t7W2Y+svY6vvtvaPsb9feBygBzjoBkC0iYUTmBQeu4Ft2mJWpUYeu1Ppc8B5hMe+6f3dUdm+uk+anp/2v+suPC7coWGHKhRwnq6w0TZxl8fWX8ZW303sWktRtPA4QDM66AZAtImFE5jlnse4x7C7GMosAWpbF7ia9miZ0uFx0mIV3XL7FtPJH7Tc1+jd0UzhceEODTtUoYDzdIWNtom7PLb+Mrb6bmLXWoqihccBmtFBNwCiTSycQF/A6662Om2Z+ljlduiRx0lTVec18rjWfdh9j+aJ/YpVGSetUtwNnF0v4XHhDg07VKGA83SFjbaJuzy2/jK2+m5i11qKooXHAZoxHXTpEQJpcaF4pEQs4JO+PKaiZl0kZtIDuLu7nD8DLf/bpC/2sywkshGWfD8m7VO+3fRFO1bHjGdh5Q9VnvSYkLVGatIzFvPnKqaFm8ayRH8eRMIqlpGPPnjKKac0k1YendTW+aNS8tek+/FmXcyqb3Ry0rajnNh+d9XSvPy+abLdeyX7Rh77+uSs9zx2XfuW7k8ued3SfqUFvbr3eKZ+2X0GpHseN/IJ5D0EJgv4cqx3rEdgbP1lbPVdT1/w2q0FhMcBekVfeIxHFkwabVjW8Nj9gr/77rs3p5122kThPDym5zDGi2f1SRtO2/nhD3/YvPSlL10pMz1r8etf/3pz+OGHr7kvA3SDhdjEpPD45je/eavnLy7EDtuJqQJGHqcSeQGBqQK+HE8l8oJMYGz9ZWz11dm3TUB43Da/9t3poIvpdPETo2hf+9rX2mlqfVPV+u4JSyMZ6QHbMUIRz62Mn/QIlHx0In8Q97aMPHYf8J2PeOQjPPk+xKjgc5/73Oaiiy5q8ke4pP2IfU6PYYmRlWOPPbY56qijmhtuuKGtTxqNiX/H7/ORx7e+9a3NSSed1ET9o47PfOYzm7322msl+OUPiO+Gx9ineBDzJZdc0sTzB8MrRt7iJ22jO+LVrdd22223sp+5Rf7ombzO3VGmRx99dGWEb1J7RT+55pprmijr2muvbesZo4NhFvufj5LGa1M/6LrFvXOXX375Sh+JVT6Tc+zjO9/5zrYfvvGNb2ze9a53tf+fnss4QLe3iTkJzCs8zqk6iiFAgEAVAlu2bKliP4fYSeFxCMXxbEN4HKCt1zropoXHKD7CwWGHHdYGpHwlxngW5j333NOOYHbvP8tfF8Gjb5Rvlmmr+XZuvvnmNsBEsHnggQfa/4+pt/Fz4oknNieccEL77wh78UD42K+8jHw/ulNY433deuy///5bhccrr7yyue+++1amsEaI7NuPfGpqCsAHHnhgE2ErTc9MQTMMwyeF2PRg9u7z+aJexx133FbtEC754xfyNs3/HeVdccUV7f7uuuuubbum5452neNvEU6Twf3339/+d9Q3lRUOaTGaPffcs7WKwJhCYphG++TtFuWWmpY8wKFiExsQmMdJfR5lbKDq3kJgMAF9fDDKUWxobP1lbPUdRScuWEnhcQDcaeExjQ7lRaWRwzwo7bbbbqsWF7nllltWwmN3kZB89PLtb3/7xPCYRgDzstPIWQokEZpi2mh+D1t+32Y+WtVdzCOfJnn11Vev7Mek0dB8quos4TH2OwWosIqRxDSymOqUbzOmC6egmAJvvl+5Q3eKZ75qaBodjHDWHa1L96KeeeaZq4Javr0I393n/aX7OPOAGG2eW+Xtet111zW33nprGxBjH9I+XXzxxa1JCsF5ucLjAAf0gm1iHif1eZSxYKx2Z2QC+vjIGnwbqzu2/jK2+m5j9xj924XHAbrAtPCYRt1SUXlA6AaJPAh0w2Oavpi2kwLepHA0beSxOzoW282DTD5VM1/YI1/MZpbw2F0MJMrJR92mLZgT+xQjnTGlM36691Hm4TH+HgHyyCOPXBm9zMN1Pg00XpsM4995vfLwGH/Lp93Gf8d01ygjD5zd8DipvfJR3QiFa4XHbviPiw4RJs8666x2BDhCv/A4wEG8wJuYx0l9HmUsMLFdG4GAPj6CRh6wimPrL2Or74BdZZSbEh4HaPZtCY/rGXlM0ze7I2EbvedxrZHHPKB1V0XNA1M+Etk38tidKrrekccYmYsg94lPfKJtqZg6m09Zjd/l24xwFfsXofCxxx5bWbQoRiOPOOKIVVNJuyOPk8JjTB/ORwBnHXmc1F7dUc21wmOatpx30+5CQ8LjAAfxAm9iHif1eZSxwMR2bQQC+vgIGnnAKo6tv4ytvgN2lVFuSngcoNm3JTxG8Ru55zF/SPpa01bz0BNldR9NMOmex3zUM61amt/zmO4NnHbPYzc8ppG/9Yw8pvs9d9lll5UpnJPCVJoKG4vzpAVvUjjrhsf8HsW1Rh7z8JgeubD33ntvtZruWvc85u2V38e51shjfs9jBObUVmnaqpHHAQ7eCjYxj5P6PMqogNouLrGAPr7EjVugamPrL2Orb4EuM6pNCo8DNPe2hMd0n2N3tdU04hbBsm+11b5VTrvTOadNW41AMmm11e7vu9NW06qkk1Z9zZ+vGPuarxwb5PkCNt1pqylQx/9HAOzeF9htsu5IXB7Uuu/Np+K+5S1vae64445Vq73Ggj3JPo0c5s/oi/oeffTRzY033tgG2fxvp556aru9tGBPPl03b69ZRx7zPhB1Ttbbb7/9ykJD3WmraTS575mXA3R1m9gEgXmc1OdRxibQKZLAioA+rjOsR2Bs/WVs9V1PX/DarQWExwF6xZgOuvU+g3EA3q1GS4fYZoltdBc1KlGGbY5PYB6fL/MoY3wtp8aLJKCPL1JrLP6+jK2/jK2+i98DF3sPhccB2mdMB928w2MavUvTZAdorsE20R2dzUcXByvEhkYvMI/Pl1RG9zmoCT9/5mnfAljxujRDIm+wuKCSHv+T36ucP0M2vT6On3icT6yonJ4Jm28rPefUs0pHf0hsCGAex9GGdsybFlJgbP1lbPVdyE5X0U4JjwM0loNuAESbIECgV2Aeny/d8JieTxo7lMJiTF2PadLdx/XEa7rPoY3fpXul49977bXXqlWS+55/2618Xzm6CIGNCszjONrovnnf4gmMrb+Mrb6L1+Pq2iPhcYD2ctANgGgTBAgsZHiMncrvn77rrrtWPaIm7XR31ecIfzGKGPc0x/vT/cTxeuFRZ5+3gPP0vMXrLm9s/WVs9a27d27+3guPA7SBg24ARJsgQGBhw2M+Xb27CnDsdN/IYwTG+ImFvNKzWmPkUnjU0TdDwHl6M9TrLXNs/WVs9a23Zy7GnguPA7SDg24ARJsgQKCa8JhWh853OK3IHL/LH+8T9zrGvY833XRTe09jCo+XX375qvrm91XGH0xbdUAMKeA8PaTm8m9rbP1lbPVd/h5ctobC4wC+DroBEG2CAIGFDY/5SsLdkce+VYb7FtXpPtYnKpvCZF/FhUcHxJACztNDai7/tsbWX8ZW3+XvwWVrKDwO4OugGwDRJggQWNjwOO2ex5iW+uCDD7bPPo3VUPvuaczviXTPo84+bwHn6XmL113e2PrL2Opbd+/c/L0XHgdoAwfdAIg2QYDAQobH9a62GiOMhx56aJOv2BoVywNo/M3Iow4/TwHn6Xlq11/W2PrL2Opbfw/d3BoIjwP4O+gGQLQJAgQWJjzefvvtq/al+5zHk08+ubn44oub/NmNEQ6vv/765nWve13z/ve/v4n37LbbbivbyUNo3P8oPOrw8xRwnp6ndv1lja2/jK2+9ffQza2B8DiAv4NuAESbIEBg08OjJiCwrALO08vasmXqNbb+Mrb6luk149mq8DhAWzvoBkC0CQIEhEd9gEAhAefpQrBLutmx9Zex1Td126985SvNK1/5yubrX/968+53v7s58cQT1+zRX/va15o/+ZM/aT796U83P/7xj5vnPe95zRve8Ibm8MMPb8JwLD/C4wAtPdaDbgA6myBAYIrAPD5f5lGGhiawmQL6+Gbq11f22PrL2OqbemTcbhGPmXriE5/YPOc5z2muueaaZscdd+ztsLGy+CmnnNL87//+b/OSl7ykefzjH9+GyO9973vNW97ylubUU08dTYAUHgf4TBvrQTcAnU0QICA86gMEigs4TxcnXqoCxtZfxlbf6KwPPfRQE88sjjAY9+f/3d/9XXP11Vc3L37xi7fqyxEQX/Oa1zTf/va3m/e9733Nfvvt177mW9/6VnP00Uc3P/jBD9r3xkjkGH6ExwFaeYwH3QBsNkGAwAwC8/h8mUcZM1TVSwgUE9DHi9Eu5YbH1l/GVt/otH/913/dHHPMMc1RRx3VvPCFL2z/HQExRiO7U1DTa/v+fu2117aPpzrnnHOa0047bSmPh26lhMcBmnmMB90AbDZBgMAMAvP4fJlHGTNU1UsIFBPQx4vRLuWGx9ZfxlbfLVu2tEHvQx/6UHPllVc28Yipl7/85c0Pf/jD5i/+4i+aX/qlX1rVr2Na6rnnntt85CMfae9vzH/uuOOO9r7Jvfbaq11p/ElPetJSHhN5pYTHAZp4bAfdAGQ2QYDAjALz+HyZRxkzVtfLCBQR0MeLsC7tRsfWX8ZW329+85vNK17xiubJT35y85d/+ZfNTjvt1Jx33nnt6GHfwjkxshiPmIp7IvNHVMUBcO+997bPNo57JWMU8qlPferSHhepYsLjAE08toNuADKbIEBgRoF5fL7Mo4wZq+tlBIoI6ONFWJd2o2PrL2Or7+WXX95ONY3RxLPPPrvtx5/5zGeaI488snn2s5+9auGcGI2M+xpjpdW+8Bj3O8Z01gceeGCr5xsv6wEiPA7QsmM76AYgswkCBGYU6N57MePbvIwAAQIEtkEgpjaO5WdM32Mfe+yx9v7GL3zhC+0iNy960YvaZk6//4d/+Id2KuvLXvay9vcPP/xwe1/knXfe2Rse09/vv/9+4XEsB8wQ9RzTQTeEl20QIDC7wDw+X+ZRxuw19koCwwvo48ObLvMWx9ZfxlTfNML4/Oc/v7nqqquaHXbYYaUrX3LJJc1JJ53UvO51r2ve8573tI/jMPK49ZFu5HGAT78xHXQDcNkEAQLrEJjH58s8ylhHlb2UwOAC+vjgpEu9wbH1lzHVNy1+s1YHftazntV8+MMfbiJgxo97HldrCY8DfPylgy7dNHv77bev2urxxx/fXHbZZSs31Xb/ftBBB2119SMeRho34KafeIhp3xLA8boLLrigHSqPn3hPd/t77LHHqqH2SdtOQ+833HDDVip9+9h9UWz39NNP7x3Wn7U+sURy/KR9jqtCZ5xxRvu7MEw/t912W3tjc0wtiOfzTPqZ9XWxfzGXvXsVaoDuYRMEtklgHif1eZSxTQjeTGAbBfTxbQQc2dvH1l/GUt+YWhoL5cTzGn/rt36recITnrBVz/7qV7/afO5zn1t1P2R8z/7jP/7j9rv2IYccsuo9Vlsd2YfDUNXthscIO6lzpUAWDyKNpYAj3PX9fd99910JhxGgrr/++pW502kbsRpUHqBi//vCY779aQEvbTsvP94Toevkk09uLr744q1Wlupzi+2ceOKJ7Z9iueI86HZQaf/QAAAgAElEQVRD5aQy4715eIyVraK+ccVHeByqt9pObQLzOKnPo4za3O3vcgno48vVnqVrM7b+Mpb6pmcyHnHEESvTUrt9KT3Tcc8992wf27HLLrs0n/zkJ9vFdPqe8xj3TcbvJw3ylO6rm7F9I48DqK8VHmPzEX523333JjprNzymwHTPPfesjE7GjbyxAlS+HHCMavb9fj3hca2g2B3F64bHaSN48fdLL720iZAcATCNCK6nzBSG4/933nnndmWrsJslPEb5Ufbdd9/dhvTuSGz63X333bfV62Lk0sjjAAeCTRQRmMdJfR5lFMGxUQIzCujjM0J5WSswtv4yhvr+6Ec/at7whjc01113Xft9+1WvelVvb3/ooYfa74mf/exnV173ne98p319rKgaK7WmRXa+9a1vtSuxxoqrESKf97znjeIIEh4HaOa1wmOayhqjgbOMPE4KMZNC2HrC43pGE9fz2hSA4/9jxDHC3gEHHNCOvq53O33NMS08xnsilB922GEr5T/44IPtFNS77rprZXprel0amY3tptfdfPPNpq0OcCzYxPAC8zipz6OM4WVskcDsAvr47FZeKTwuYx/4yle+0rzyla9snva0p62MKE6qZwyCxG1YL3/5y5v3v//9zZOe9KTmIx/5SHPKKae0b3nJS17SLqbz6U9/uvne977XxH2Up556anvRYQw/wuMArTztnsc0lD3tnsjYlbVGwNIIZndK6LR7HtP9inmQWus+wdiP9YS+NGX1hBNOaEdLow5pyum0EctZ+KPecaWn+5OPJuYjp/m+x3vS3+Je0GQV9c/3Lf7mnsdZWsNr5i0wjy+98yhj3m7KI5AL6OP6w3oExtZfxlDfFAjf9KY3rdwiNalPpKAZf88XzvnUpz7VXHTRRc0tt9zS/PjHP25HGmM08/DDDx9NcAwT4XE9nyYTXjtt2mp6Wz4KOWlUbojwOOmex/UEwvW+Nk0ZTXXNg9167p3sI5428tgNhfkU3254zBchir+lhXliKoLwuLX+pAse+QJK+ZThfAupD7z97W9vf929X7evXWc9HLtlTrrXYJYyJl3giBNNmk4+qV+mixqprumiTL5/acGsdFEmP1by/U4ntnhd/p55nNSnXQBbT3sng7w+UafuQgPdBbq6hmmRrdwitpP6ZNpmHP9xXE97XT5lva+fpr8fd9xxq+7Zzi/a9V3IysuddLykz5ldd921d1GzvkUYZj0WvG42gXkcR7PtiVfVIDC2/jK2+tbQBxd5H4XHAVpno+Exiu4ujjPp3sb89zGvOu6hjBHI9UxbnTT1NbadAl7+5XfW0Nf3BT194Tr22GPbh6t2F+TpK3NSU0wLj/Glb9aRx0kB0T2P/frdCx7xqm4/mnahIe+jqX/1bXfWQ7E70j2p/EnhIy8nhbwdd9xx1cN9U/DpBpL03nx0PX6X99G8bvvvv/9K/49jIRaVSiP03RHyuGc4njEVP/kxM4+T+lqfYett70mfa/n93skoTTWP93QX1or/Pv/885unPOUpq1ZV7v4+wuMsr4vPibU+0yb1hW54zC+EdBczm9av+/6eyo0LCd1V/GY9JrxuusA8jqPpe+EVtQiMrb+Mrb619MNF3U/hcYCW2Zbw2Bfopq22mo+IxL9vvfXW9v6+Rx55pHdBnryKk1Y+7a7kOi0QpG1O+rKU71fcT5g/wmOt1WP7mmNaeIz3bOSex9zZtNXZw2MKB2lUblpf6esjeaCMkcl0MWQjh2PfMZQuTsT2+lYpzsNK3KcQ+5MWeUr3wj73uc9tvvvd7241Ytq3j3l9uhcz8mMhfxjxtFWHk+88TurTPsPyz5yNtHfyThdv3vve9/aO6ublpAs62223XXPwwQevBKton6c//enN5z//+bbN0rE77XWzhMe4CBXbyfvMWuEx6pV7pJHFSbM/Zvm8zPvIRo4H7+kXmMdxxH55BMbWX8ZW3+XpqZtTE+FxAPdpX7ymBa2+5yOu9VzEfLpX/gzHSVOmovx8WlR3232jK7Outto3qpS+UMX0vHQ1fZYyJzXFtPCY7l/srrYav+9OccunruV2Rh5nD48bGYnqtmHf/bsbPRT7vpCn7UcAi5/ulNm8rI1OW8230b1Yko9wTzpGJgWJru88TupDjjxOqm/yyh9f1B1py9+bQmEe4tNFgTjWo03z8DjtdbOGx/POO685++yzV1a8nhYepz2OKe8nk9p8iHvDN3r8jOV98ziOxmI5hnqOrb+Mrb5j6MMl6yg8DqDroBsA0SYWUmCWRZ4m3fOYX5TIw3mMkPc9dmajAN1gmh4bE1NAYwSodHjsXmjpjjROClN9F0XSRZb8/r95fL5Mu+dxrfs2U7ul10y7ELNWeOxbxCqc0uN/IlDGYlzxvK18IawI69NeN+mex7TfedmxlHua0RF9KI2M97VZX3iM/cx/0j2jk2aHCI8bPfpnf988jqPZ98YrF11gbP1lbPVd9P636PsnPA7QQg66ARBtYiEFZlnkado0xqhYfs9urFKWvphv6xS9/HErsa3u/ZAlF8yJevXdr9YNT33hsbvf3cbP3/OMZzyj2bJlS9H+MWnksa9tp7X3tow89oXHiy++uDnzzDPbe0XT/d777bffVuFx2utmHXmM0cztt9++ve80RjgjrK4VHqc9jmmWkcdpZkUbfyQbd54eSUMPVM2x9Zex1XegbjLazQiPAzS9g24ARJtYSIG+aXbde3KnhYmoWBqdiamFd9xxR/ulfFsWB5l03+wso6Bd6I1OW+2bbp4CZb6AUz4SGX+PUDLpPsy0b7lpLDa1WeEx9me97b3W1My0KNB67nmM+7nj9XH/afSdc889t2XqjjxOe916wmNMeU+BbpdddllZ8GvSFPq0EI97HhfyY6zdKefpxW2bRdyzsfWXsdV3EftcTfskPA7QWg66ARBtYiEFhlhtNVUsrWDafSTDRio+y4hibHeW120kPK4VmCetthqrI0/an+5oZR44Y7XRzQyPG7nHtW8V6XxRq1lXW033jsaiW/H+vmfW5otdrfW69YbH1H/icSzpkSrd9rPa6kaO3s15j/P05rjXWurY+svY6ltrv1yU/RYeB2gJB90AiDaxkAKTRpHyUbfY8e5zPuN3+YJE8d9pVPCAAw5YtYDNehfPmXQfZt+zHruP0Oi713LW8Ni9Jy5WEM5/8lCcj4Cme+qm7Xf+XMTNvuexu1roRtq7+5zHbvvM8pzHFB7TvYLp0R5901vzFaf7XjfpnsfUT/PRzO4jZdL2Nvqcx9h2LFoW7RohuHtPpOc8lv/4c54ub7xMJYytv4ytvsvUVzejLsLjAOoOugEQbYIAgV6BeXy+zKMMzUtgMwX08c3Ur6/ssfWXsdW3vh65WHssPA7QHpMWm0ibzp9dNkBxK5vIr753ny03qZw0PS4Wl4j7dGLEKK6Gr3f1y7QqZPcxH91HY6Qr+EPWe9G2lbdvjEzEyNrdd9/d+xy7Rdt3+7P4AvM4qc+jjMWXtofLLKCPL3PrDl+3sfWXsdV3+B4zri0KjwO092aFx3zXZ13qvW8Z/XwlzH322WcmkdjO+eef38T9WOnh6vHGSb+faaOVvmhSeIzqxH1ufghsi8A8TurzKGNbDLyXwLYK6OPbKjiu94+tv4ytvuPqzcPXVngcwHS94TGN2kXRaQGIeMxA/vt0z1NaMj5Wqbz22mvbEa1071AKjG9961ubk046qb2PJr0v/h331qSfdE9Nd+QxXhN/u+GGG9p71F772tc2X/ziF5u4fyj2KX9mXv5YhbSd7bbbrjn44INXVs6MkbenP/3pzec///mVUJnf+5TuL9pzzz1XVp2MBSnip/tcwL79j9el7cW2IuzGPqSHwOf3JHWdwvCiiy5q6xl/u+CCC1qzSc+wy+87i/qmMv7+7/9+5X6+Bx54YMU5trPXXns1v/zLv9zE7+NnW1YUHaBr2sQSCMzjpD6PMpagKVShYgF9vOLG24RdH1t/GVt9N6FLLVWRwuMAzbme8Jg/F27//fdfCVDxHLN86mgEpPg59thj29fcf//9bcjLVwyMv6fl6vNpq91VBfOVG2M1wliEYtK01Vhqvm8/uiNoKTxGIIsl9CNYxQhmmgob/x0jkhHOIqTFvscU1rSASfwu6hU/EVRjv2IBkti3+ElL30c4zPf/rrvuWvlbWhZ/7733bsvvvi6m5EZI3Hnnndvpuccdd1w7Ehj7EM9u65bVXWY/fxZfWsUx6pG3Wyr3nnvuWbUIzADdyiYItALzOKnPowzNSWAzBfTxzdSvr+yx9Zex1be+HrlYeyw8DtAe3fDYXUkvikijW5MeIP7ud7+7efOb39w+wyyfOtpdJj+2lVanzB+UvdY9j3mZ08JjlJ3u24uQdOKJJ7YP5+5OZ03bjNdGaEtBMULZkUceuRJqu/c8pimeKTzGM+wi0K01dTbf/+7z4SZtr+vUDaMp7OXlxmhhHnS7Kzrmf8unqpa6p3WArmkTSyAwj5P6PMpYgqZQhYoF9PGKG28Tdn1s/WVs9d2ELrVURQqPAzTnekYe89GxNC00Hz1MjzxI01lj92KELn+o+izhsbukfNreLOExwloKgemh3vmU1dinfPprjJpGwLz66qub3XffvclDbZp2G9Ni008E6RQeU7264XHS/scjBOInTSHthse8nBTau2E2D3vd8JhPlY33p2m2ESzTYwPCQngc4MCxiZkE5nFSn0cZM1XWiwgUEtDHC8Eu6WbH1l/GVt8l7bZzq5bwOAD1esLjpJHHNK0z7c6kEbV8JHLSyGN3quh6Rx7T9NMITnH/Yt+iL93RwJi6escdd7Qjp/GTAvF1113X3HrrrSv3UHbr1RceuyOA6xl5zEN2suwuJrRWeMwDYt41+h7inkYvjTwOcBDZxESBeZzU51GGJiawmQL6+Gbq11f22PrL2OpbX49crD0WHgdoj/WEx0n3PPaNjsWupXse499xb2B+z18e0vJpq3l4TCN/6f2zjDzGa/P7AvtWYO0G0hixS6ObsY994TE96DvuUVxr5DEPj939n/Wex/yh4nnIjmm0k8Jj957HeN3111/f3q8ZpkYeBzhYbGLdAvH54ocAAQIE5iuwZcuW+Ra4iaUJj5uIX2HRwuMAjbae8BjFTVptNV+VtDttdaeddmrSqqRp5dR8RC22m6ZcRsg866yzVlZQPfXUU9sy032J3QVz0gIwd955ZxuQIiz2PdIjp8r/nge1GKXs26+0EuzRRx/d3HjjjasW7IkVSfPpo2kl1rQCbL7/KfzF4jqxGuoLX/jC5rHHHutdbTXdZzrryGPUO4X7WNU2TVnt88gD6KRnXg7QtWyCgAVz9AECAwj4cjwA4og2Mbb+Mrb6jqgrF6mq8DgAa8mDLk1T7ZuOOcCuT9xEuq9ykZ9T2LeYUEkT2yawGQIlP19SfeZRxmbYKZOAPq4PbERgbJ+JY6vvRvqE9/yfgPA4QG8oedDNOzym8oIlPetxAKLBNpGP2sZG82c0DlaIDRFYIIGSny++WC9QQ9uVogLzOI6KVsDG5yowtv4ytvrOtTMtYWHC4wCN6qAbANEmCBDoFZjH58s8ytC8BDZTQB/fTP36yh5bfxlbfevrkYu1x8LjAO3hoBsA0SYIEBAe9QEChQScpwvBLulmx9ZfxlbfJe22c6uW8DgAtYNuAESbIEBAeNQHCBQScJ4uBLukmx1bfxlbfZe0286tWsLjANQOugEQbYIAAeFRHyBQSMB5uhDskm52bP1lbPVd0m47t2oJjwNQO+gGQLQJAgQ2PTzGI3PikT/xaJ38Jy1Mlf5+xhlnNPGInfSTP7omf9xN+ns8ViceMRSP2om/n3zyye3jerrPkO1b5Tl/hFFsLz2qKN+/WEgrHt+THjXUtw/p9RdeeGHTffZr/C0tFhaPCIqffJ/jv2M/rrjiipUy4nf5I4b6noerSy+OgPP04rRFDXsytv4ytvrW0AcXeR+FxwFax0E3AKJNECCwMOExD4f5is8RqCJcTguP3XAYoTB+LrvssnWFxwhs119//Urw7AuvsX8nnnhiu/299tqr6T5eKLZx6623rlo9uvvs17Tdww47bOX93UCaQmy+wrPwWM9B6zxdT1stwp6Orb+Mrb6L0Mdq3gfhcYDWc9ANgGgTBAgsZHiMnUojgkccccSGwmMEsRgVjMf/3HXXXTONPE4a5cy3tcMOO7Rh9NJLL23iWbgR8K688sp2hDP9zBIe85HTvBHy36ft3H///SvhWXis56B1nq6nrRZhT8fWX8ZW30XoYzXvg/A4QOs56AZAtAkCBBYyPOYhbltGHnffffd2VG/WaasREi+44IKVUcdJ3SNCXfzEtiPkHnDAAVtNqV1r5HH77bdvjjrqqDZ85lNxY5v5Plx33XXNPffc024/BeFHHnmkOeaYY5pzzz13qym4uvNiCThPL1Z7LPrejK2/jK2+i97/Fn3/hMcBWshBNwCiTRAgsDDhsXvPY9wnGOFso/c8HnTQQSvTRtcTHlNIixHGvp80ZfWEE05ow1uEvZtuuqmdHjvryONa4TGf3prCYwTaCJv77rtvEyOxwmMdB67zdB3ttCh7Obb+Mrb6Lko/q3U/hMcBWs5BNwCiTRAgsDDhsXtPY9qxWcNj957HfATvvvvum2na6iwjj9MW54n9njZtdb3hMd23ec455zTnnXdec/bZZxt5rODYdZ6uoJEWaBfH1l/GVt8F6mpV7orwOECzOegGQLQJAgQWPjzmi+fkUzynLYiT3xsYlZxltdVJQTXd43jJJZe09x7GTz7S2F2xdVp4jPsjZ73nMaatprKinAcffLB59NFHhccKjl3n6QoaaYF2cWz9ZWz1XaCuVuWuCI8DNJuDbgBEmyBAYOHDY+xgCk2x+E1asCbuF4yprREo+6albmTkMY0a9q22GquirrV4T36P4yzhcdbVVvPwmN7z0EMPrXp8h268mALO04vZLou6V2PrL2Or76L2u1r2S3gcoKUcdAMg2gQBAlWExxQgL7/88pX9zZ+92DeVdI899ljzGYzp71dffXWTFtZJG+8+5zHdfzlpWmsqP4XZWcJjlDXLcx7z8Bjv6T7OQxdeXAHn6cVtm0Xcs7H1l7HVdxH7XE37JDwO0FoOugEQbYIAgU0Pj5qAwLIKOE8va8uWqdfY+svY6lum14xnq8LjAG3toBsA0SYIEBAe9QEChQScpwvBLulmx9ZfxlbfJe22c6uW8DgAtYNuAESbIEBAeNQHCBQScJ4uBLukmx1bfxlbfZe0286tWsLjANQOugEQbYIAAeFRHyBQSMB5uhDskm52bP1lbPVd0m47t2oJjwNQO+gGQLQJAgSER32AQCEB5+lCsEu62bH1l7HVd0m77dyqJTwOQO2gGwDRJggQEB71AQKFBJynC8Eu6WbH1l/GVt8l7bZzq5bwOAC1g24ARJsgQEB41AcIFBJwni4Eu6SbHVt/GVt9l7Tbzq1awuMA1A66ARBtggAB4VEfIFBIwHm6EOySbnZs/WVs9V3Sbju3aq2Ex7mVqCACBAgQIECAAAECBAgQqFLgcU3TbNmyZUuVO2+nCRAgQIAAAQIECBAgQKC8gGmr5Y2VQIAAAQIECBAgQIAAgeoFhMfqm1AFCBAgQIAAAQIECBAgUF5AeCxvrAQCBAgQIECAAAECBAhULyA8Vt+EKkCAAAECBAgQIECAAIHyAsJjeWMlECBAgAABAgQIECBAoHoB4bH6JlQBAgQIECBAgAABAgQIlBcQHssbK4EAAQIECBAgQIAAAQLVCwiP1TehChAgQIAAAQIECBAgQKC8gPBY3lgJBAgQIECAAAECBAgQqF5AeKy+CVWAAAECBAgQIECAAAEC5QWEx/LGSiBAgAABAgQIECBAgED1AsJj9U2oAgQIECBAgAABAgQIECgvIDyWN1YCAQIECBAgQIAAAQIEqhcQHqtvQhUgQIAAAQIECBAgQIBAeQHhsbyxEggQIECAAAECBAgQIFC9gPBYfROqAAECBAgQIECAAAECBMoLCI/ljZVAgAABAgQIECBAgACB6gWEx+qbUAUIECBAgAABAgQIECBQXkB4LG+sBAIECBAgQIAAAQIECFQvIDxW34QqQIAAAQIECBAgQIAAgfICwmN5YyUQIECAAAECBAgQIECgegHhsfomVAECBAgQIECAAAECBAiUFxAeyxsrgQABAgQIECBAgAABAtULCI/VN6EKECBAgAABAgQIECBAoLyA8FjeWAkECBAgQIAAAQIECBCoXkB4rL4JVYAAAQIECBAgQIAAAQLlBYTH8sZKIECAAAECBAgQIECAQPUCwmP1TagCBAgQIECAAAECBAgQKC8gPJY3VgIBAgQIECBAgAABAgSqFxAeq29CFSBAgAABAgQIECBAgEB5AeGxvLESCBAgQIAAAQIECBAgUL2A8Fh9E6oAAQIECBAgQIAAAQIEygsIj+WNlUCAAAECBAgQIECAAIHqBYTH6ptQBQgQIECAAAECBAgQIFBeQHgsb6wEAgQIECBAgAABAgQIVC8gPFbfhCpAgAABAgQIECBAgACB8gLCY3ljJRAgQIAAAQIECBAgQKB6AeGx+iZUAQIECBAgQIAAAQIECJQXEB7LGyuBAAECBAgQIECAAAEC1QsIj9U3oQoQIECAAAECBAgQIECgvIDwWN5YCQQIECBAgAABAgQIEKheQHisvglVgAABAgQIECBAgAABAuUFhMfyxkogQIAAAQIECBAgQIBA9QLCY/VNqAIECBAgQIAAAQIECBAoLyA8ljdWAgECBAgQIECAAAECBKoXEB6rb0IVIECAAAECBAgQIECAQHkB4bG8sRIIECBAgAABAgQIECBQvYDwWH0TqgABAgQIECBAgAABAgTKCwiP5Y2VQIAAAQIECBAgQIAAgeoFhMfqm1AFCBAgQIAAAQIECBAgUF5AeCxvrAQCBAgQIECAAAECBAhULyA8Vt+EKkCAAAECBAgQIECAAIHyAsJjeWMlECBAgAABAgQIECBAoHoB4bH6JlQBAgQIECBAgAABAgQIlBcQHssbK4EAAQIECBAgQIAAAQLVCwiP1TehChAgQIAAAQIECBAgQKC8gPBY3lgJBAgQIECAAAECBAgQqF5AeKy+CVWAAAECBAgQIECAAAEC5QWEx/LGSiBAgAABAgQIECBAgED1AsJj9U2oAgQIECBAgAABAgQIECgvIDyWN1YCAQIECBAgQIAAAQIEqhcQHqtvQhUgQIAAAQIECBAgQIBAeQHhsbyxEggQIECAAAECBAgQIFC9gPBYfROqAAECBAgQIECAAAECBMoLCI/ljZVAgAABAgQIECBAgACB6gWEx+qbUAUIECBAgAABAgQIECBQXkB4LG+sBAIECBAgQIAAAQIECFQvIDxW34QqQIAAAQIECBAgQIAAgfICwmN5YyUQIECAAAECBAgQIECgegHhsfomVAECBAgQIECAAAECBAiUFxAeyxsrgQABAgQIECBAgAABAtULCI/VN6EKECBAgAABAgQIECBAoLyA8FjeWAkECBAgQIAAAQIECBCoXkB4rL4JVYAAAQIECBAgQIAAAQLlBYTH8sZKIECAAAECBAgQIECAQPUCwmP1TagCBAgQIECAAAECBAgQKC8gPJY3VgIBAgQIECBAgAABAgSqFxAeq29CFSBAgAABAgQIECBAgEB5AeGxvLESCBAgQIAAAQIECBAgUL2A8Fh9E6oAAQIECBAgQIAAAQIEygsIj+WNlUCAAAECBAgQIECAAIHqBYTH6ptQBQgQIECAAAECBAgQIFBeQHgsb6wEAgQIECBAgAABAgQIVC8gPFbfhCpAgAABAgQIECBAgACB8gLCY3ljJRAgQIAAAQIECBAgQKB6AeGx+iZUAQIECBAgQIAAAQIECJQXEB7LGyuBAAECBAgQIECAAAEC1QsIj9U3oQoQIECAAAECBAgQIECgvIDwWN5YCQQIECBAgAABAgQIEKheQHisvglVgAABAgQIECBAgAABAuUFhMfyxkogQIAAAQIECBAgQIBA9QLCY/VNqAIECBAgQIAAAQIECBAoLyA8ljdWAgECBAgQIECAAAECBKoXEB6rb0IVIECAAAECBAgQIECAQHkB4bG8sRIIECBAgAABAgQIECBQvYDwWH0TqgABAgQIECBAgAABAgTKCwiP5Y2VQIAAAQIECBAgQIAAgeoFhMfqm1AFCBAgQIAAAQIECBAgUF5AeCxvrAQCBAgQIECAAAECBAhULyA8Vt+EKkCAAAECBAgQIECAAIHyAsJjeWMlECBAgAABAgQIECBAoHoB4bH6JlQBAgQIECBAgAABAgQIlBcQHssbK4EAAQIECBAgQIAAAQLVCwiP1TehChAgQIAAAQIECBAgQKC8gPBY3lgJBAgQIECAAAECBAgQqF5AeKy+CVWAAAECBAgQIECAAAEC5QWEx/LGSiBAgAABAgQIECBAgED1AsJj9U2oAgQIECBAgAABAgQIECgvIDyWN1YCAQIECBAgQIAAAQIEqhcQHqtvQhUgQIAAAQIECBAgQIBAeQHhsbyxEggQIECAAAECBAgQIFC9gPBYfROqAAECBAgQIECAAAECBMoLCI/ljZVAgAABAgQIECBAgACB6gWEx+qbUAUIECBAgAABAgQIECBQXkB4LG+sBAIECBAgQIAAAQIECFQvIDxW34QqQIAAAQIECBAgQIAAgfICwmN5YyUQIECAAAECBAgQIECgegHhsfomVAECBAgQIECAAAECBAiUFxAeyxsrgQABAgQIECBAgAABAtULCI/VN6EKECBAgAABAgQIECBAoLyA8FjeWAkECBAgQIAAAQIECBCoXkB4rL4JVYAAAQIECBAgQIAAAQLlBYTH8sZKIECAAAECBAgQIECAQPUCwmP1TagCBAgQIECAAAECBAgQKC8gPJY3VgIBAqnidYQAACAASURBVAQIECBAgAABAgSqFxAeq29CFSBAgAABAgQIECBAgEB5AeGxvLESCBAgQIAAAQIECBAgUL2A8Fh9E6oAAQIECBAgQIAAAQIEygsIj+WNlUCAAAECBAgQIECAAIHqBYTH6ptQBQgQIECAAAECBAgQIFBeQHgsb6wEAgQIECBAgAABAgQIVC8gPFbfhCpAgAABAgQIECBAgACB8gLCY3ljJRAgQIAAAQIECBAgQKB6AeGx+iZUAQIECBAgQIAAAQIECJQXEB7LGyuBAAECBAgQIECAAAEC1QsIj9U3oQoQIECAAAECBAgQIECgvIDwWN5YCQQIECBAgAABAgQIEKheQHisvglVgAABAgQIECBAgAABAuUFhMfyxkogQIAAAQIECBAgQIBA9QLCY/VNqAIECBAgQIAAAQIECBAoLyA8ljdWAgECBAgQIECAAAECBKoXEB6rb0IVIECAAAECBAgQIECAQHkB4bG8sRIIECBAgAABAgQIECBQvYDwWH0TqgABAgQIECBAgAABAgTKCwiP5Y2VQIAAAQIECBAgQIAAgeoFhMfqm1AFCBAgQIAAAQIECBAgUF5AeCxvrAQCBAgQIECAAAECBAhULyA8Vt+EKkCAAAECBAgQIECAAIHyAsJjeWMlECBAgAABAgQIECBAoHoB4bH6JlQBAgQIECBAgAABAgQIlBcQHssbK4EAAQIECBAgQIAAAQLVCwiP1TehChAgQIAAAQIECBAgQKC8gPBY3lgJBAgQIECAAAECBAgQqF5AeKy+CVWAAAECBAgQIECAAAEC5QWEx/LGSiBAgAABAgQIECBAgED1AsJj9U2oAgQIECBAgAABAgQIECgvIDyWN1YCAQIECBAgQIAAAQIEqhcQHqtvQhUgQIAAAQIECBAgQIBAeQHhsbyxEggQIECAAAECBAgQIFC9gPBYfROqAAECBAgQIECAAAECBMoLCI/ljZVAgAABAgQIECBAgACB6gWEx+qbUAUIECBAgAABAgQIECBQXkB4LG+sBAIECBAgQIAAAQIECFQvIDxW34QqQIAAAQIECBAgQIAAgfICwmN5YyUQIECAAAECBAgQIECgegHhsfomVAECBAgQIECAAAECBAiUFxAeyxsrgQABAgQIECBAgAABAtULCI/VN6EKECBAgAABAgQIECBAoLyA8FjeWAkECBAgQIAAAQIECBCoXkB4rL4JVYAAAQIECBAgQIAAAQLlBYTH8sZKIECAAAECBAgQIECAQPUCwmP1TagCBAgQIECAAAECBAgQKC8gPJY3VgIBAgQIECBAgAABAgSqFxAeq29CFSBAgAABAgQIECBAgEB5AeGxvLESCBAgQIAAAQIECBAgUL2A8Fh9E6oAAQIECBAgQIAAAQIEygsIj+WNlUCAAAECBAgQIECAAIHqBYTH6ptQBQgQIECAAAECBAgQIFBeQHgsb6wEAgQIECBAgAABAgQIVC8gPFbfhCpAgAABAgQIECBAgACB8gLCY3ljJRAgQIAAAQIECBAgQKB6AeGx+iZUAQIECBAgQIAAAQIECJQXEB7LGyuBAAECBAgQIECAAAEC1QsIj9U3oQoQIECAAAECBAgQIECgvIDwWN5YCQQIECBAgAABAgQIEKheQHisvglVgAABAgQIECBAgAABAuUFhMfyxkogQIAAAQIECBAgQIBA9QLCY/VNqAIECBAgQIAAAQIECBAoLyA8ljdWAgECBAgQIECAAAECBKoXEB6rb0IVIECAAAECBAgQIECAQHkB4bG8sRIIECBAgAABAgQIECBQvYDwWH0TqgABAgQIECBAgAABAgTKCwiP5Y2VQIAAAQIECBAgQIAAgeoFhMfqm1AFCBAgQIAAAQIECBAgUF5AeCxvrAQCBAgQIECAAAECBAhULyA8Vt+EKkCAAAECBAgQIECAAIHyAsJjeWMlECBAgAABAgQIECBAoHoB4bH6JlQBAgQIECBAgAABAgQIlBcQHssbK4EAAQIECBAgQIAAAQLVCwiP1TehChAgQIAAAQIECBAgQKC8gPBY3lgJBAgQIECAAAECBAgQqF5AeKy+CVWAAAECBAgQIECAAAEC5QWEx/LGSiBAgAABAgQIECBAgED1AsJj9U2oAgQIECBAgAABAgQIECgvIDyWN1YCAQIECBAgQIAAAQIEqhcQHqtvQhUgQIAAAQIECBAgQIBAeQHhsbyxEggQIECAAAECBAgQIFC9gPBYfROqAAECBAgQIECAAAECBMoLCI/ljZVAgAABAgQIECBAgACB6gWEx+qbUAUIECBAgAABAgQIECBQXkB4LG+sBAIECBAgQIAAAQIECFQvIDxW34QqQIAAAQIECBAgQIAAgfICwmN5YyUQIECAAAECBAgQIECgegHhsfomVAECBAgQIECAAAECBAiUFxAeyxsrgQABAgQIECBAgAABAtULCI/VN6EKECBAgAABAgQIECBAoLyA8FjeWAkECBAgQIAAAQIECBCoXkB4rL4JVYAAAQIECBAgQIAAAQLlBYTH8sZKIECAAAECBAgQIECAQPUCwmP1TagCBAgQIECAAAECBAgQKC8gPJY3VgIBAgQIECBAgAABAgSqFxAeq29CFSBAgAABAgQIECBAgEB5AeGxvLESCBAgQIAAAQIECBAgUL2A8Fh9E6oAAQIECBAgQIAAAQIEygsIj+WNlUCAAAECBAgQIECAAIHqBYTH6ptQBQgQIECAAAECBAgQIFBeQHgsb6wEAgQIECBAgAABAgQIVC8gPFbfhCpAgAABAgQIECBAgACB8gLCY3ljJRAgQIAAAQIECBAgQKB6AeGx+iZUAQIECBAgQIAAAQIECJQXEB7LGyuBAAECBAgQIECAAAEC1QsIj9U3oQoQIECAAAECBAgQIECgvIDwWN5YCQQIECBAgAABAgQIEKheQHisvglVgAABAgQIECBAgAABAuUFhMfyxkogQIAAAQIECBAgQIBA9QLCY/VNqAIECBAgQIAAAQIECBAoLyA8ljdWAgECBAgQIECAAAECBKoXEB6rb0IVIECAAAECBAgQIECAQHkB4bG8sRIIECBAgAABAgQIECBQvYDwWH0TqgABAgQIECBAgAABAgTKCwiP5Y2VQIAAAQIECBAgQIAAgeoFhMfqm1AFCBAgQIAAAQIECBAgUF5AeCxvrAQCBAgQIECAAAECBAhULyA8Vt+EKkCAAAECBAgQIECAAIHyAsJjeWMlECBAgAABAgQIECBAoHoB4bH6JlQBAgQIECBAgAABAgQIlBcQHssbK4EAAQIECBAgQIAAAQLVCwiP1TehChAgQIAAAQIECBAgQKC8gPBY3lgJBAgQIECAAAECBAgQqF5AeKy+CVWAAAECBAgQIECAAAEC5QWEx/LGSiBAgAABAgQIECBAgED1AsJj9U2oAgQIECBAgAABAgQIECgvIDyWN1YCAQIECBAgQIAAAQIEqhcQHqtvQhUgQIAAAQIECBAgQIBAeQHhsbyxEggQIECAAAECBAgQIFC9gPBYfROqAAECBAgQIECAAAECBMoLCI/ljZVAgAABAgQIECBAgACB6gWEx+qbUAUIECBAgAABAgQIECBQXkB4LG+sBAIECBAgQIAAAQIECFQvIDxW34QqQIAAAQIECBAgQIAAgfICwmN5YyUQIECAAAECBAgQIECgegHhsfomVAECBAgQIECAAAECBAiUFxAeyxsrgQABAgQIECBAgAABAtULCI/VN6EKECBAgAABAgQIECBAoLyA8FjeWAkECBAgQIAAAQIECBCoXkB4rL4JVYAAAQIECBAgQIAAAQLlBYTH8sZKIECAAAECBAgQIECAQPUCwmP1TagCBAgQIECAAAECBAgQKC8gPJY3VgIBAgQIECBAgAABAgSqFxAeq29CFSBAgAABAgQIECBAgEB5AeGxvLESCBAgQIAAAQIECBAgUL2A8Fh9E6oAAQIECBAgQIAAAQIEygsIj+WNlUCAAAECBAgQIECAAIHqBYTH6ptQBQgQIECAAAECBAgQIFBeQHgsb6wEAgQIECBAgAABAgQIVC8gPFbfhCpAgAABAgQIECBAgACB8gLCY3ljJRAgQIAAAQIECBAgQKB6AeGx+iZUAQIECBAgQIAAAQIECJQXEB7LGyuBAAECBAgQIECAAAEC1QsIj9U3oQoQIECAAAECBAgQIECgvIDwWN5YCQQIECBAgAABAgQIEKheQHisvglVgAABAgQIECBAgAABAuUFhMfyxkogQIAAAQIECBAgQIBA9QLCY/VNqAIECBAgQIAAAQIECBAoLyA8ljdWAgECBAgQIECAAAECBKoXEB6rb0IVIECAAAECBAgQIECAQHkB4bG8sRIIECBAgAABAgQIECBQvYDwWH0TqgABAgQIECBAgAABAgTKCwiP5Y2VQIAAAQIECBAgQIAAgeoFhMfqm1AFCBAgQIAAAQIECBAgUF5AeCxvrAQCBAgQIECAAAECBAhULyA8Vt+EKkCAAAECBAgQIECAAIHyAsJjeWMlECBAgAABAgQIECBAoHoB4bH6JlQBAgQIECBAgAABAgQIlBcQHssbK4EAAQIECBAgQIAAAQLVCwiP1TehChAgQIAAAQIECBAgQKC8gPBY3lgJBAgQIECAAAECBAgQqF5AeKy+CVWAAAECBAgQIECAAAEC5QWEx/LGSiBAgAABAgQIECBAgED1AsJj9U2oAgQIECBAgAABAgQIECgvIDyWN1YCAQIECBAgQIAAAQIEqhcQHqtvQhUgQIAAAQIECBAgQIBAeQHhsbyxEggQIECAAAECBAgQIFC9gPBYfROqAAECBAgQIECAAAECBMoLCI/ljZVAgAABAgQIECBAgACB6gWEx+qbUAUIECBAgAABAgQIECBQXkB4LG+sBAIECBAgQIAAAQIECFQvIDxW34QqQIAAAQIECBAgQIAAgfICwmN5YyUQIECAAAECBAgQIECgegHhsfomVAECBAgQIECAAAECBAiUFxAeyxsrgQABAgQIECBAgAABAtULCI/VN6EKECBAgAABAgQIECBAoLyA8FjeWAkECBAgQIAAAQIECBCoXkB4rL4JVYAAAQIECBAgQIAAAQLlBYTH8sZKIECAAAECBAgQIECAQPUCwmP1TagCBAgQIECAAAECBAgQKC8gPJY3VgIBAgQIECBAgAABAgSqFxAeq29CFSBAgAABAgQIECBAgEB5AeGxvLESCBAgQIAAAQIECBAgUL2A8Fh9E6oAAQIECBAgQIAAAQIEygsIj+WNlUCAAAECBAgQIECAAIHqBYTH6ptQBQgQIECAAAECBAgQIFBeQHgsb6wEAgQIECBAgAABAgQIVC8gPFbfhCpAgAABAgQIECBAgACB8gLCY3ljJRAgQIAAAQIECBAgQKB6AeGx+iZUAQIECBAgQIAAAQIECJQXEB7LGyuBAAECBAgQIECAAAEC1QsIj9U3oQoQIECAAAECBAgQIECgvIDwWN5YCQQIECBAgAABAgQIEKheQHisvglVgAABAgQIECBAgAABAuUFhMfyxkogQIAAAQIECBAgQIBA9QLCY/VNqAIECBAgQIAAAQIECBAoLyA8ljdWAgECBAgQIECAAAECBKoXEB6rb0IVIECAAAECBAgQIECAQHkB4bG8sRIIECBAgAABAgQIECBQvYDwWH0TqgABAgQIECBAgAABAgTKCwiP5Y2VQIAAAQIECBAgQIAAgeoFhMfqm1AFCBAgQIAAAQIECBAgUF5AeCxvrAQCBAgQIECAAAECBAhULyA8Vt+EKkCAAAECBAgQIECAAIHyAsJjeWMlECBAgAABAgQIECBAoHoB4bH6JlQBAgQIECBAgAABAgQIlBcQHssbK4EAAQIECBAgQIAAAQLVCwiP1TehChAgQIAAAQIECBAgQKC8gPBY3lgJBAgQIECAAAECBAgQqF5AeKy+CVWAAAECBAgQIECAAAEC5QWEx/LGSiBAgAABAgQIECBAgED1AsJj9U2oAgQIECBAgAABAgQIECgvIDyWN1YCAQIECBAgQIAAAQIEqhcQHqtvQhUgQIAAAQIECBAgQIBAeQHhsbyxEggQIECAAAECBAgQIFC9gPBYfROqAAECBAgQIECAAAECBMoLCI/ljZVAgAABAgQIECBAgACB6gWEx+qbUAUIECBAgAABAgQIECBQXkB4LG+sBAIECBAgQIAAAQIECFQvIDxW34QqQIAAAQIECBAgQIAAgfICwmN5YyUQIECAAAECBAgQIECgegHhsfomVAECBAgQIECAAAECBAiUFxAeyxsrgQABAgQIECBAgAABAtULCI/VN6EKECBAgAABAgQIECBAoLyA8FjeWAkECBAgQIAAAQIECBCoXkB4rL4JVYAAAQIECBAgQIAAAQLlBYTH8sZKIECAAAECBAgQIECAQPUCwmP1TagCBAgQIECAAAECBAgQKC8gPJY3VgIBAgQIECBAgAABAgSqFxAeq29CFSBAgAABAgQIECBAgEB5AeGxvLESCBAgQIAAAQIECBAgUL2A8Fh9E6oAAQIECBAgQIAAAQIEygsIj+WNlUCAAAECBAgQIECAAIHqBYTH6ptQBQgQIECAAAECBAgQIFBeQHgsb6wEAgQIECBAgAABAgQIVC8gPFbfhCpAgAABAgQIECBAgACB8gLCY3ljJRAgQIAAAQIECBAgQKB6AeGx+iZUAQIECBAgQIAAAQIECJQXEB7LGyuBAAECBAgQIECAAAEC1QsIj9U3oQoQIECAAAECBAgQIECgvIDwWN5YCQQIECBAgAABAgQIEKheQHisvglVgAABAgQIECBAgAABAuUFhMfyxkogQIAAAQIECBAgQIBA9QLCY/VNqAIECBAgQIAAAQIECBAoLyA8ljdWAgECBAgQIECAAAECBKoXEB6rb0IVIECAAAECBAgQIECAQHkB4bG8sRIIECBAgAABAgQIECBQvYDwWH0TqgABAgQIECBAgAABAgTKCwiP5Y2VQIAAAQIECBAgQIAAgeoFhMfqm1AFCBAgQIAAAQIECBAgUF5AeCxvrAQCBAgQIECAAAECBAhULyA8Vt+EKkCAAAECBAgQIECAAIHyAsJjeWMlECBAgAABAgQIECBAoHoB4bH6JlQBAgQIECBAgAABAgQIlBcQHssbK4EAAQIECBAgQIAAAQLVCwiP1TehChAgQIAAAQIECBAgQKC8gPBY3lgJBAgQIECAAAECBAgQqF5AeKy+CVWAAAECBAgQIECAAAEC5QWEx/LGSiBAgAABAgQIECBAgED1AsJj9U2oAgQIECBAgAABAgQIECgvIDyWN1YCAQIECBAgQIAAAQIEqhcQHqtvQhUgQIAAAQIECBAgQIBAeQHhsbyxEggQIECAAAECBAgQIFC9gPBYfROqAAECBAgQIECAAAECBMoLCI/ljZVAgAABAgQIECBAgACB6gWEx+qbUAUIECBAgAABAgQIECBQXkB4LG+sBAIECBAgQIAAAQIECFQvIDxW34QqQIAAAQIECBAgQIAAgfICwmN5YyUQIECAAAECBAgQIECgegHhsfomVAECBAgQIECAAAECBAiUFxAeyxsrgQABAgQIECBAgAABAtULCI/VN6EKECBAgAABAgQIECBAoLyA8FjeWAkECBAgQIAAAQIECBCoXkB4rL4JVYAAAQIECBAgQIAAAQLlBYTH8sZKIECAAAECBAgQIECAQPUCwmP1TagCBAgQIECAAAECBAgQKC8gPJY3VgIBAgQIECBAgAABAgSqFxAeq29CFSBAgAABAgQIECBAgEB5AeGxvLESCBAgQIAAAQIECBAgUL2A8Fh9E6oAAQIECBAgQIAAAQIEygsIj+WNlUCAAAECBAgQIECAAIHqBYTH6ptQBQgQIECAAAECBAgQIFBeQHgsb6wEAgQIECBAgAABAgQIVC8gPFbfhCpAgAABAgQIECBAgACB8gLCY3ljJRAgQIAAAQIECBAgQKB6AeGx+iZUAQIECBAgQIAAAQIECJQXEB7LGyuBAAECBAgQIECAAAEC1QsIj9U3oQoQIECAAAECBAgQIECgvIDwWN5YCQQIECBAgAABAgQIEKheQHisvglVgAABAgQIECBAgAABAuUFhMfyxkogQIAAAQIECBAgQIBA9QLCY/VNqAIECBAgQIAAAQIECBAoLyA8ljdWAgECBAgQIECAAAECBKoXEB6rb0IVIECAAAECBAgQIECAQHkB4bG8sRIIECBAgAABAgQIECBQvYDwWH0TqgABAgQIECBAgAABAgTKCwiP5Y2VQIAAAQIECBAgQIAAgeoFhMfqm1AFCBAgQIAAAQIECBAgUF5AeCxvrAQCBAgQIECAAAECBAhULyA8Vt+EKkCAAAECBAgQIECAAIHyAsJjeWMlECBAgAABAgQIECBAoHoB4bH6JlQBAgQIECBAgAABAgQIlBcQHssbK4EAAQIECBAgQIAAAQLVCwiP1TehChAgQIAAAQIECBAgQKC8gPBY3lgJBAgQIECAAAECBAgQqF5AeKy+CVWAAAECBAgQIECAAAEC5QWEx/LGSiBAgAABAgQIECBAgED1AsJj9U2oAgQIECBAgAABAgQIECgvIDyWN1YCAQIECBAgQIAAAQIEqhcQHqtvQhUgQIAAAQIECBAgQIBAeQHhsbyxEggQIECAAAECBAgQIFC9gPBYfROqAAECBAgQIECAAAECBMoLCI/ljZVAgAABAgQIECBAgACB6gWEx+qbUAUIECBAgAABAgQIECBQXkB4LG+sBAIECBAgQIAAAQIECFQvIDxW34QqQIAAAQIECBAgQIAAgfICwmN5YyUQIECAAAECBAgQIECgegHhsfomVAECBAgQIECAAAECBAiUFxAeyxsrgQABAgQIECBAgAABAtULCI/VN6EKECBAgAABAgQIECBAoLyA8FjeWAkECBAgQIAAAQIECBCoXkB4rL4JVYAAAQIECBAgQIAAAQLlBYTH8sZKIECAAAECBAgQIECAQPUCwmP1TagCBAgQIECAAAECBAgQKC8gPJY3VgIBAgQIECBAgAABAgSqFxAeq29CFSBAgAABAgQIECBAgEB5AeGxvLESCBAgQIAAAQIECBAgUL2A8Fh9E6oAAQIECBAgQIAAAQIEygsIj+WNlUCAAAECBAgQIECAAIHqBYTH6ptQBQgQIECAAAECBAgQIFBeQHgsb6wEAgQIECBAgAABAgQIVC8gPFbfhCpAgAABAgQIECBAgACB8gLCY3ljJRAgQIAAAQIECBAgQKB6AeGx+iZUAQIECBAgQIAAAQIECJQXEB7LGyuBAAECBAgQIECAAAEC1QsIj9U3oQoQIECAAAECBAgQIECgvIDwWN5YCQQIECBAgAABAgQIEKheQHisvglVgAABAgQIECBAgAABAuUFhMfyxkogQIAAAQIECBAgQIBA9QLCY/VNqAIECBAgQIAAAQIECBAoLyA8ljdWAgECBAgQIECAAAECBKoXEB6rb0IVIECAAAECBAgQIECAQHkB4bG8sRIIECBAgAABAgQIECBQvYDwWH0TqgABAgQIECBAgAABAgTKCwiP5Y2VQIAAAQIECBAgQIAAgeoFhMfqm1AFCBAgQIAAAQIECBAgUF5AeCxvrAQCBAgQIECAAAECBAhULyA8Vt+EKkCAAAECBAgQIECAAIHyAsJjeWMlECBAgAABAgQIECBAoHoB4bH6JlQBAgQIECBAgAABAgQIlBcQHssbK4EAAQIECBAgQIAAAQLVCwiP1TehChAgQIAAAQIECBAgQKC8gPBY3lgJBAgQIECAAAECBAgQqF5AeKy+CVWAAAECBAgQIECAAAEC5QWEx/LGSiBAgAABAgQIECBAgED1AsJj9U2oAgQIECBAgAABAgQIECgvIDyWN1YCAQIECBAgQIAAAQIEqhcQHqtvQhUgQIAAAQIECBAgQIBAeQHhsbyxEggQIECAAAECBAgQIFC9gPBYfROqAAECBAgQIECAAAECBMoLCI/ljZVAgAABAgQIECBAgACB6gWEx+qbUAUIECBAgAABAgQIECBQXkB4LG+sBAIECBAgQIAAAQIECFQvIDxW34QqQIAAAQIECBAgQIAAgfICwmN5YyUQIECAAAECBAgQIECgegHhsfomVAECBAgQIECAAAECBAiUFxAeyxsrgQABAgQIECBAgAABAtULCI/VN6EKECBAgAABAgQIECBAoLyA8FjeWAkECBAgQIAAAQIECBCoXkB4rL4JVYAAAQIECBAgQIAAAQLlBYTH8sZKIECAAAECBAgQIECAQPUCwmP1TagCBAgQIECAAAECBAgQKC8gPJY3VgIBAgQIECBAgAABAgSqFxAeq29CFSBAgAABAgQIECBAgEB5AeGxvLESCBAgQIAAAQIECBAgUL2A8Fh9E6oAAQIECBAgQIAAAQIEygsIj+WNlUCAAAECBAgQIECAAIHqBYTH6ptQBQgQIECAAAECBAgQIFBeQHgsb6wEAgQIECBAgAABAgQIVC8gPFbfhCpAgAABAgQIECBAgACB8gLCY3ljJRAgQIAAAQIECBAgQKB6AeGx+iZUAQIECBAgQIAAAQIECJQXEB7LGyuBAAECBAgQIECAAAEC1QsIj9U3oQoQIECAAAECBAgQIECgvIDwWN5YCQQIECBAgAABAgQIEKheQHisvglVgAABAgQIECBAgAABAuUFhMfyxkogQIAAAQIECBAgQIBA9QLCY/VNqAIECBAgQIAAAQIECBAoLyA8ljdWAgECBAgQIECAAAECBKoXEB6rb0IVIECAAAECBAgQIECAQHkB4bG8sRIIECBAgAABAgQIECBQvYDwWH0TqgABAgQIECBAgAABAgTKCwiP5Y2VQIAAAQIECBAgQIAAgeoFhMfqm1AFCBAgQIAAAQIECBAgUF5AeCxv7w8MAAAAIABJREFUrAQCBAgQIECAAAECBAhULyA8Vt+EKkCAAAECBAgQIECAAIHyAsJjeWMlECBAgAABAgQIECBAoHoB4bH6JlQBAgQIECBAgAABAgQIlBcQHssbK4EAAQIECBAgQIAAAQLVCwiP1TehChAgQIAAAQIECBAgQKC8gPBY3lgJBAgQIECAAAECBAgQqF5AeKy+CVWAAAECBAgQIECAAAEC5QVWwmP5opRAgAABAgQIECBAgAABAjULPK5pmi1btmypuQ72ncCKQFwR0Z91CAIECBAgsJgCztOL2S72isAsAqatzqLkNVUJOClV1Vx2lgABAgRGJuA8PbIGV92lEhAel6o5VSYEnJT0AwIECBAgsLgCztOL2zb2jMA0AeFxmpC/VyfgpFRdk9lhAgQIEBiRgPP0iBpbVZdOQHhcuiZVISclfYAAAQIECCyugPP04raNPSMwTUB4nCbk79UJOClV12R2mAABAgRGJOA8PaLGVtWlExAel65JVchJSR8gQIAAAQKLK+A8vbhtY88ITBMQHqcJ+Xt1Ak5K1TWZHSZAgACBEQk4T4+osVV16QSEx6VrUhVyUtIHCBAgQIDA4go4Ty9u29gzAtMEZgqP9957b3PooYc2e++9d3PZZZet2uY73vGO5tZbb22uuuqqZocddmj/9vDDDzdHHXVUc8MNN6y89vjjj1/13rTN22+/fdX29thjj+aaa65p9tlnn4nbyt/wsY99rDnkkEOm1dPfRyQwy0np9a9/fXP55Zf3qqQ++MADDzQXXHBBE33svvvua1796lc3d999d+97on/Ha6Pfx+v6+uSkPh8b7Pb7ETWXqhIgQIDAyAT6ztPxffKKK65Y9R0wWNK584wzzmjPrfG6e+65Z6vvo32vu/7669tz+G677baVcGwn/X377bff6ntrekP+PfPjH/94+3247+eggw5qvws/8sgj7Wu632/jPd3vwiNrdtVdEoF1hcc4ELphrRseb7vttvbL8wEHHLDqwI4v61/+8pdXDuI4yI855pjm3HPPXQmKYRoH5umnn77y4ZGC6KQv5EvSDqoxoMAs4TEvLvpcXLDIL4CkvpjCY37imdQnp/XVSX1+wKrbFAECBAgQWHiBSeExvv+lEJYGJLYlPH70ox9tnvWsZzWXXHLJygBHOr9HwHvBC17Qfi9N4bH7XbP7nXTS94UcfNK5PtXjsMMOa0477bSFbyM7SGCSwMzhMYLeTjvt1HzjG99YdRUnD49RSIy87Lvvvr0HRgTI+InRy7W+SPdtc1p47BsB1ezjFKg5PKYAOukYGmeLqjUBAgQILJPApPAYM9nuv//+Jg9Y2xIeY3vx3fXII49cNVCRvo+mQY1J4bH7XXVbwmO0n++qy9SLx1uXdYXHuFISwS8OxDR9NT8Q7rrrrubkk09uLr744lUHaeKNUclzzjmnufLKK9tf9Y08xu/z1006oMfbZGo+TaDm8Ditbv5OgAABAgRqF5gUHmM6asxcy2egbWt4jKmuDz744MqgRmwvvqseeOCBzQc/+MGpI4833XTTynde4bH2nmf/hxBYV3iMKabxE6OAF1544crc83TP480337xyj1jf/PL8Cs6uu+46MTzmr9tzzz0nzkNP0w36yhoCxzbqFFjk8DjpPojuNJ065e01AQIECBCYLrBWeIzBiRgZjMCX30O4kXse4/vpW9/61nbaatyGElNhIwBGIIyQmm5NWeuex/z8vNY9j/G9OAZZTFud3v5eUbfAusNjLGST32R83XXXrSyYUzI8Tpu2Wncz2PshBRY5PE4abR+y/rZFgAABAgQWWWBaeMzvDzziiCPaBWg2Gh4jgJ533nntNuI7bATTCI7x0w2P3e+aaR2PNGAy68jjpAvFKWAuctvYNwLTBDYUHtN9WTF9dffdd18Jj6atTuP293kICI/zUFYGAQIECBDYmMC08BhbTYvVROCKkLct4TEGN2K08cwzz1y5vSoWgZwWHmM/8vU6Zg2P3QvF3UUjN6bmXQQWQ2BD4TF2PV2N+fmf//nmyU9+cju1IH42a8GcxeC0F4sgIDwuQivYBwIECBAg0C8wS3hMwe1LX/pS8/3vf3/ldqlJAS6+l+brbuRrcsTjM9J9jv/0T//U3sMY25k1PMZASUxJ3Wh4TIMuUafuyu76CIHaBDYcHqOicWB2l1X2qI7ausDy7a/wuHxtqkYECBAgsDwCs4bH/PnI6VFxkx55kd8nGfc2dlc2Tc93TtuZJTx2A+lGw2M+6NJ9lN3ytKqajEVgm8LjpCsp6fc33HDDimP3waiTHpjeXQSnb1t546TtWv54LF12ej03Ozzm/T7tbZysom9Pug8iXhdTc4499tg1R++n194rCBAgQIDAYgvMGh6jFmmRmvw547N8z+x+L8zDYiy02BceJ52/Y8XWfF/6dPfYY4/2mdFrLQiZ6uLex8Xun/ZubYGZwiNEAjUJrDc81lQ3+0qAAAECBGoXcJ6uvQXt/5gFhMcxt/6S1t1JaUkbVrUIECBAYCkEnKeXohlVYqQCwuNIG36Zq+2ktMytq24ECBAgULuA83TtLWj/xywgPI659Ze07k5KS9qwqkWAAAECSyHgPL0UzagSIxUQHkfa8MtcbSelZW5ddSNAgACB2gWcp2tvQfs/ZgHhccytv6R1d1Ja0oZVLQIECBBYCgHn6aVoRpUYqYDwONKGX+ZqOyktc+uqGwECBAjULuA8XXsL2v8xCwiPY279Ja27k9KSNqxqESBAgMBSCDhPL0UzqsRIBYTHkTb8MlfbSWmZW3djdXv961/fXH755U3+kOmNbcm7coF4CPfpp5/eHH/88c2ZZ57ZHHrooc3tt9/e67xly5bmlltuaT70oQ81n/nMZ5pvfetbzXbbbdfsueeeze/+7u82J510UvMzP/MzgAkQGIGA8/QIGlkVl1ZAeFzaph1vxZyUxtv2k2ouPJbpE7OGx3//939v/uiP/qi5/vrr28D4vOc9r/nFX/zF5tFHH21uvfXW5utf/3rz7Gc/u3nnO9/ZvPSlLy2zs7ZKgMDCCDhPL0xT2BEC6xYQHtdN5g2LLuCktOgtVH7//ud//qf5xCc+0VxzzTXNnXfe2dx7770rhcZI1z777NO85jWvafbbb78m+oufjQnk4fHNb35zc9hhhzW33XbbqpHHhx56qDn22GPb38X/X3DBBatGGH/84x83l1xySfv7pzzlKc1VV13V/Oqv/urGdsi7CBCoQsB5uopmspMEegWERx1j6QSclJauSddVoTvuuKM5+eSTm89+9rPNbrvt1vzKr/xKc//99zdf+MIXmoMPPrj5wQ9+0HzlK19pIrT8/u//fnPhhRc2O+6447rK8OL/X+CjH/1oa/imN72pOeecc5qjjz66+drXvtaG9gjo8XPeeeet/O2yyy5rfuqnfmorvpjSesYZZ7Rt8brXva55z3ve0zz+8Y/HTIDAkgo4Ty9pw6rWKASEx1E087gq6aQ0rvbOaxv30aUAc8IJJzRnnXVWs/322zfdaav/8i//0gaaa6+9tnnlK1/ZXHHFFc2TnvSk5rTTTmsuuuiiJkJO3MfX/YkRsrg3793vfndz4oknttu96aabVoWl9J40KheBKLYbP32v/6u/+qsmRu3+8z//s93Orrvu2t47GD8xWhcBOP/p20Yqq3tPZ4SyP/3TP23/d9BBB7WjejvssEO7uTB417ve1dxwww2rRmZTWd3X9/Wqz3/+882RRx7ZWrzxjW9sbf7xH/9xZb//9V//tTn88MObBx98sLn66qubF73oRRM7ZwT62M7zn//8dn9/9md/tn1thPwIqe973/tWQn+MHr/qVa9qjjnmmOanf/qnt9pmBNgw+dznPtfW7Rd+4ReaQw45pA2ocV/lxz/+8RXjSTv0ghe8YKUe4XjzzTe37f7Vr3613WY4xr7+wR/8QVvHn/iJn2g3FX9L937m206vP+WUU5qXvexlKyPeMVL76le/urn77rsn2vS1RZRz6aWXtu0X036jn8SU37j39P/9v/83tc+st5/G62NEP/rfBz/4wfb4iOMkfpLPn//5n7f3tT788MNb1SU/Dsb7CaXmScB5Wl8gUK+A8Fhv29nzCQJOSuPsGj/60Y+aU089tZ0CGcHxz/7sz1ZGufruefze977XTl2NL7vxJTjCyCc/+ck2DB1wwAHN+9///jZQpp/HHnusDSvf/OY3m+uuu6555jOfuc3h8Tvf+U5b7ve///1m//33b4477rjmCU94wmDhMYJO1Oef//mfV4XHb3/7223dY3R23333be9BTOEn9iUcYkpvHjb7elVsJ4JThN/f+73fa8NobDO9L4JxhPNf//Vfb4P6U5/61HV1zkceeaQN3u9973ub3XffvfmN3/iNdkQyQmtMR46QFn/LR44/8pGPNBHQ/uu//qv5tV/7tTY4hkPcWxl1iuATU2k//OEPr+zLF7/4xXZkOqbd7rzzzu3v46JDbCe2HRcUItA+7WlPa/ch7tu877772m3GfZvxtz/8wz9cFR6j/Be+8IXNT/7kT7a//8Y3vtGW8cQnPrH5wAc+0PzO7/xO+/sUHuP3+evjb//93//d/O3f/m0bUvO2iP19wxve0HzpS19aab8YXf/Upz7V7n8E7ahr+hniIkds62/+5m+a1772te3FgDw8xkWLCP5R59/8zd9snvGMZ6yUHcH2xhtvbEeV00WUdXUCL15KAefppWxWlRqJgPA4koYeUzWdlMbU2v9X1/jyHF/+/+3f/q0d5Xrxi1+86stz32qracQu7sWLv//Hf/xHG+ZixCzCRXxpTz/pS358OU7TKrf1S3kEqhSOYjQqftLIVfx7W0YeY5QoAk2MTsVPPnoVdY1974bsPMw85znPmRoep/W0/J7INEo17T353+MCwFve8pbmwAMPbNvn537u59o/56EyVnuN+yXjuI9g/4pXvKKJoB/v/e3f/u329WERr7v44ovb0cfzzz///2vvzIO9mv8//p4hlcRXaFEokQoVIUsohYySMaHCiMY6krUsE0lFxhayJsMfIjEaO22WkCnLICI1TJOosWWP8ZvHe36vO+eeez7r+dx7z+ec55lpqHuW9/vxet/P+zw/r63WMPIVVMIjigBG+CI8EaN24NnE082/mTg2+7Vv374OPyrNIrKGDRvmvd0IYVtXUbyj7oVXb9SoUW7+/Pl+TvyxUGATzt26dfPj2Xnnnf1Q465T7oHg5suTefPm+XuaeMRjTqgxHvjp06d7/sEjygNfyhrQuekkoH06nXbVrLJBQOIxG3bO1Cy1KWXK3DWTtZdwiq7MnTvXdezYseZnucSBhS8GhZXl6Floqt2El+BJkyZ5QWBhpXFeygm9RATgMSVc1bxnlRKPeIkQxYhSXuyD4oTwUjy0iA08h8Ejn5gpdWXFEY94t0aMGOHFdDCH0sZgQpGwVvMEmygmXBk7Bosh4flD/HTu3NmLnGBbkHziES8e4ZjYKuw5i7JVPvEYxbZU8fjcc8/5eZDLG1w3cCF8lDEiTM2bXinxyP2mTJnihS/8TDzalzas4/DvHc+WeCz1tyYb52ufzoadNct0EpB4TKddMz0rbUrZND+FcvAQceA17NmzZ0HxaAVfEIN4lVq2bOl7EBLqScjjrFmzfE6deXvwvjz++OMOr1Kcl3IEKDlueMHIvUS82FEJ8WjjJewRT9fYsWNriUfCS/FKRoUSJkU80i8SL3DXrl19b0i+FAgeCCUEDPbA3oTNwhGPm/292N+EYlu54JnGK00YMB5JWK1YscLh6TMvcS7xyHjxWF999dV+fSHe+awqVTziieVLDLynrJ/wYWsau/MFSJx1aqJ99erVfsxdunTxeZXDhw+vEY+bNm2KLJQU/NIF76jCVotdjdk4T/t0NuysWaaTgMRjOu2a6VlpU8qm+RF2FB4h5y7odbGX53DYqnlpyGdDwJG3xmHCi1wtC101QYn3yc4L3jcf8XDBHMZhBwIAT5HlG/LvlRCP5iXCQ0ToIlyCnkcTLE2aNHFTp071gsDyOyspHk2kWlhwKW1RLP+UQjcwi7rWhBTicujQod47SC5klKcyn40KiUc8t5MnT/Zryw4K4JD3Spg0xWrC4jGc88h55CRyLl9KUJCHo1TxaGPFWx7MLbRxReWs2jWlrFMrBMWXKIhU8lf50gNPI1+2BHMezbuIDeCEmLY1Lc9jNj+PC81a+3QhQvq5CCSXgMRjcm2jkZVJQJtSmeBScBmiCS9Hr169auWnRYkDCuVQKZMj3FswXFWVEEgK6IQrhnJfQvXIrQuGQXLPqEIhnE/xEAToK6+84vPWCImk3YUdccUjczcvETzwkIXFI8KZOSO+gj0wg0ugmGqrhZaMCcDevXsXLJiDaEeQEIaKDTds2ODnUYx4JPwWAVwf4tGKxCC0afVCYSO82m3btnUUXQpXxs1VbdVYkUdrgj2OeCzEPmi/ctapiUeew/rBC8x6oX9qWDySg4pHld8PCghFHfI8FrJYtn6ufTpb9tZs00VA4jFd9tRsnPMeCl6OdWSPQLAwCiKK0EzCGfGc4L1C6OHx4SWXKp2bN292EyZM8IVjgoeFwO69997u1ltv9aKG4ibh6qNxch532203/0L+7bff1hKvccQj88PzhpgyQZzPs4U3jGInnENfRjxGpVRbLbTC8FJRQIWqrIVadZh3l6I4hKIiJvOFrZJjR3Va5oyHmNzOcBhrofHZz3N5Hu0ZsKRCKrmGwaOUnEdE8QsvvODGjx/vQ6GZI2GgpXoezdsala+aa77lrlPmjFeXEGv+Sx6x5QkHPY/2XLyThEgTLj1w4ECfx6tqq8Wuwmydp306W/bWbNNFQOIxXfbUbCQeM78GEJDklvGHXK1cBy0qCFelkmc4JNJEA3l3tP+gUAhtG8gjCx7lvpRbWCX5abRcQPjgJaRqZhzxiLAg58+8RPly6gjzJZwUDyjXMc9COXjlLC4LW7R+mlF9GYOVYa166nfffVdUwRyEiuW4msc4qmDOxo0bfXsSRBysg70Qc4lHC2HOFQprxWu4V6GcR9hZniZfXFhPzlLFI9fhYUU4w7aYUOBy1ym5jQhIqtnCjiOXeAx68oOtQhS2Ws5vTfqvkXhMv401w/QSkHhMr20zOzNtSpk1fa2JI0hopUAvPsInrY8fjerpgbfPPvvUyjUMU0OE8dLdp08f38LDKnpWUjyaOGFs1vsvjniknQR5eHj56IvIESVOEMd4wAiZDYu6SuY88nwTqYgeBAghm9ZCgp/TVoOwYMR+ONy4mFYdiPpp06Z5z/Bnn33m50O+IZ5mbG2ijZYleKARRNZqxWxZjOcRAYWwNbHGsxDfiCa82cWIR+stihi1djKlike7x4cffuj7T1KR1sYES+aIN5YvJei/yVGOeGT9E6oLw6DHPUo8Wt9QQqQJTw0WgJJ41OdxFAHt01oXIlC9BCQeq9d2GnkOAtqUtDTCBAoVRIkiZq0gli9f7kM7w4Kj3JdyyyUjTJTDcuooTMJLOvlj5JTheRs0aJBr1qxZreHRIH7VqlU+z5K2CYTl2gs6zevxvpmXKJd4tKbuiE1EzH777VfzjEqLR26MuCDMES8nuYI8b8899/TCknBVBPMBBxzgGdOCwo5gP0fEcL9+/bxIXLJkiQ/PpUAL8+3QoUPNNdbrMNiwHqHHvMLitJB45OfGilw+C+214jeM559//vGhmeZNNvEfLpjD9XyRwbn0I0Xk8YXEsmXLfCGdYHVUG1euyq3cB88jXGHZo0cPL5jt/vQixbtpPSnLEY+IbwryUNyHPE87wuIx3xcRXCPxqM9jiUetARFIFwGJxzLsaU2jeQkI94IL344wpQULFvhv+PmGGk8DxRYGDx7sw8TCRTaC19umzAtCONeqjGFn5hKJx8yYuuiJliMe+d3lhR5xFeztGHxoOS/lYfGItwghgLBCPCFQEI+EzBY6rAiJvaBHFbkJi0EK0dDYHs9VWGjmEpuFxlHMz/EEU2wFkYXwQxghdul3iZgaPXp05OchYaaE9xIKyWcvf+caQnPJQYwKg2VusEGU0S8SEYXQvOKKK7x4DR/51gfrgCJHeDfNJgg2GNIjk+fQOoOcQAr85CuYQ9sRbMtnP/sHhWj4kgBxxh4R7E3KGPP1jFyzZo2jmi1edb5MyMeynHWKeGT9491EsOcSjybW27Vr58OHyZsNHhKPxfx2ZO8c7dPZs7lmnB4CEo9l2JLNkBeG5s2b+/L34UbNdkteOth4qazIxk4BAf5r35rzEsG3w9YcPDgUrp09e7Z/yTCPBKXhdRQmoE2pMCOdUZgAX94Q+ocHMtjbsfCV9X+GCUJEZ7hxff0/XU8QAREQgXgEtE/H46erRaAxCUg8lkjfeslRpZF+XXgLLHclfKsPPvjAfxNNc2tEon0ja3kpfOvPN9ZUewwefLPOz8ix4VvzSpTML3GaVX26NqWqNl9iBs/vNjlthKyGf0cbe5ASj41tAT1fBEQgDgHt03Ho6VoRaFwCEo8l8rfqelS7O+KII3zYFPlFUVXvrEF2VGirtQIg7ycYkkoo0sSJE31FO3qjrV27tlZz7xKHm8nTtSll0uwVmTStJfDmrVu3zldqJcTcWhRU5AEVuonEY4VA6jYiIAKNQkD7dKNg10NFoCIEJB5LwEgoKSFivExSRIAKe1S627RpU03PruDtKIiA2EQ8HnXUUbWeRB4jxS7wXgbFI7kpVLnDY0nIHCK1ffv2ynkswU7alEqApVNrEeB3mZ6P/A7y5RBfCgULuAiXCIiACIhAfALap+Mz1B1EoLEISDyWQN6qL7Zs2dLnI1J4gRLz9IorVDgn/BhrA4BIJETVSq1PnjzZi1J6z+F1JC9S4rEEI6nPY2mwdLYIiIAIiIAINDABiccGBq7HiUAFCUg8lgCT6nN4BoN5ipSZRwDSMy5X4ZzwI6iMR6U+yr2Hy6AHz81Xaa+EYWfuVG1KmTO5JiwCIiACIlBFBLRPV5GxNFQRCBGQeCxySVDkhvxGmnlTIMeaT9u/L1y40AvBIUOG5L0j3kTKn9O+4/rrr/fVVM3rGL5Q4rFI40QsakKMdYiACIiACIiACCSPgMRj8myiEYlAsQQkHoskZR7G/fffv07+IWGnY8aMydlI3B5Bo2ryGOkVNm7cOP+nadOmOUcg8VikcSQeywOlq0RABERABESgEQhIPDYCdD1SBCpEQOKxSJB4CQlXzXfQAJomyQjM8EHZfxpUb9y40V177bVeRObyONq1Eo9FGkfisTxQukoEREAEREAEGoGAxGMjQNcjRaBCBCQeiwBJ+f6RI0c6KqQOGjTINWvWrM5V9HR888036/RtJHzykUce8YKxRYsWbtq0ae6kk04qKBx5gMRjEcaJOEWbUnncdJUIiIAIiIAINAQB7dMNQVnPEIH6ISDxWARXq4w6fPhwN2PGDLfVVlvVucr6P3bv3t237aBCKseTTz7pLrnkEtehQwd/bSll/yUeizCOxGN5kHRVIgnwO7906VJH/1d6TOoQAREQgTQSkHhMo1U1p6wQkHgsYOm///7bh5g+8cQT7r777nOnn3565BU//PCDO+OMM9wbb7xRc95bb73lzjnnHLfjjju6Bx980HXr1q2kdSXxWBKumpO1KZXHTVc1HIGPP/7YPfzww27x4sXuo48+qvXgbbbZxudV06ZHhwiECdi+wJ5DhW/2GfLnTzzxRPUD1nKpGgLap6vGVBqoCNQhIPFYYFG8//777rTTTnOtW7eu5VGMuoyG4mziI0aMcPfee6+78sor3cyZM90uu+zi2rRpE/kkvAt33HGHo3dkrpcE9Xks7TdXm1JpvHR2wxEIhrGvX7++zoP32GMPLxqvueYat+222zbcwPSkqiEg8Vg1ptJA8xDQPq3lIQLVS0DisYDtTBBS7Ib/z3eY0OSc22+/3bfioLJqviPft8XyPJb3i6VNqTxuuqr+CZAbTV9Y8qavu+46N2DAALf11lvX/4P1hNQQCItH2kdddtll8jymxsLZmIj26WzYWbNMJwGJx3TaNdOz0qaUafMnevI33nije/TRR30RrcMPPzzRY9Xgkkngp59+cmeeeab76quvfHXvr7/+2kfHkFJBaoUOEagGAtqnq8FKGqMIRBOQeNTKSB0BbUqpM2kqJvT777/7XrB//PGHu/vuu90DDzzg5s6d6z7//HMf2k4UwqWXXuo6depUa74XXHCBW758uc9nmz17tg+fX716tW8JNGrUKHf22Wf7Ss7B499//3Vz5sxxDz30kCMigr9TzAuBET7/nXfe8fnaRx99dB3xYV4u7v3000/7ceY7f8GCBf7+TZo08fl4hxxySE3V6N69e/v88cmTJ7uXX37ZD7dv376+oBge2HDrot9++83NmjXLUbBsxYoVbosttvBzJo/8lFNO8X+3wyJEwguFMODjjz/eV7veaaedav34ww8/9NEk7733nlu1apUj1zQXI2zw2muv1cwpeCN79i233OJTFTjs32BGdW07CFu+4YYb/J9w1MmaNWt8CsOzzz7rmYUPO59w5vPPP9+RN/vUU0+5devWebuytuz5qfiF0SRSTUD7dKrNq8mlnIDEY8oNnMXpaVPKotWTP2d6vPKSv8MOO7i//vrLzZ8/3x188MFur732cp999pkXZR07dvSi8tBDD62ZEMJlyZIlvuAW/WL79+/v2rZt6xYtWuRWrlzpTj31VJ9j3apVK3/NL7/84kUERbp23313169fP18hmnsgOMip5Gd2fqXEI2LvvPPO896wzp071xGPiDfGhthhTH/++ad74YUX/JgJ4UU4m4Bcu3atu+iii9y8efPcvvvu6w477DBH8TIKDCGcL774YodYa9q0aS2xdvLJJ7t27dr5f/v111/d22+/7cU5njm4msi2KticN3DgQM+CAjSvv/66F27zJwt4AAAMaklEQVQIWtoqWWXtSolHC1v+5JNPaolH2kDhTaTgGrbfb7/9asTxjz/+6F566SUvtPkCYbvttnM333yzW7Zsmfdgw5R5k1oRFKrJ/43QCLNMQPt0lq2vuVc7AYnHaregxl+HgDYlLYokEjAvHnnQiL8777zTCz8OPFJ4FS+//HIvEvG27bzzzv5nCJf777/fde3a1edSH3fccf7fN2zY4D1Qr776qhdSnMdh+dbHHHOMv848bkFRSWEvBAi/K5USj3hEx44d6xDJUeKReQ8dOtTdc889vnURB2KNOWy55Zbuscce86IJkTh+/HjPBwHJOE30majEwxmccy5P3/fff+9FGaKZ+x911FHO+vbyMzyziDI7vvzyS38+3mEqbCPszQZxPY98YUBuIkKfI+h5xE7Y78ILL/T2M1HMeWYfRLSJxySub41JBEohoH26FFo6VwSSRUDiMVn20GgqQECbUgUg6hYVJxAUj4hEBE8wVDNXWyATj5MmTXITJkyoNS7EFwV4COdEWCB6qPbMsyxsNHjBF1984UaOHOnDWE0cVUI8WugkIZWMgXy8cNjqd9995wXckUceWWsO5IHiebSwT1qX4Cn83//+58/Hexo8bM4msmmFlEs8mvBDnFkIKWIbcYqHDyEbtMHPP//sQ4ERm0F+lfA8vvjii+7cc891Q4YM8SGwQTE4ZswYPxY8ooTkBg+Jx4r/KuqGCSCgfToBRtAQRKBMAhKPZYLTZckloE0pubbJ8shMPBKiSmjnCSecUAcHYgnPFx438iJN/CB4+Bnhm8HDQmERZohBvIuExuKlpDAPAix44OHE04eX0MZQCfGIeEP83HXXXV7EBsWXzZtw0qgxLVy40Atgci4JLSUfEvGIyEX0hXMhrWAM4ah4aA888MCc4hFPJfmcucQ0YpFzGC85kOQ/kiOKIK2keDRRSqgutsVDGxSP5DrilQzmTZrdJB6z/KmR3rlrn06vbTWz9BOQeEy/jTM3Q21KmTN5VUw43GKBYjLh45lnnvE5iQg8q5yJ14uQT4rrkBMZPMKeMoQVQozctyjhxbW0EMKLiZDjXBMneAtzHQi0XAVzLI+P3EEK01DQJko8EpIaNaawOCJ8lznfdNNN7qqrrqozJDy05FbivbNQVPM8BnMeOY88TwrRcP7UqVNrchjJOeTeeDHJjeSgYA4FdjZt2uT/HhaPjD3fka9gDracMmWKmz59ug9HRtAGxaMxoNAQ4zz22GNrWrhIPFbFr7cGWSIB7dMlAtPpIpAgAhKPCTKGhlIZAtqUKsNRd6ksAfOYffrpp5EhpTwtl3ik2qqJt0qJRwuRNHFCbuRBBx1Ua9J4yvAEtmnTJlI8IoYIwUWk4clEGIXDPk00U201qpVEueKR4jLmjc1VbZXJUGAGsYZ4I6zWxC7jQmSTG3rAAQf4sW/evDln2CrinXzT7bffvhYjPKCWdxpVbbVXr15epHfp0sXPH89mWDziEcZji7CPqrTKA/P1BK7sStXdRKD+CWifrn/GeoII1BcBicf6Iqv7NhoBbUqNhl4PzkPAPGbPP/+8Fz1W+CZ4iYUvUjkTQcSRL99u/fr1PscRYVpM2KqNASFUibDVYcOG+Tw+WnAQdhmVM2jisX379pEFX6gkirgaPHhwUWGrFqqLR7FQ2CpFccgTpbqs5Yya5xUvKfmW9ZnzCGe8sAh1xGGfPn3yFsD55ptvfMsNBDWeafI6o6qt6hdNBKqdgPbparegxp9lAhKPWbZ+SueuTSmlhk3BtMgLpDhKlHCh1QU9EimsgtAgfNXEIyGT5ECSLxc8rHgMuZAzZ870OY/FFMzBo4h47NmzZ9nVVhE3hHxyL0JgW7dunVc8Eg7KMynuEzysYA5eOcJ1iy2YQyEdQlypXJuvYA5eUcRpjx49PFfCVYMFdIJjwStIviUeyErkPCJUEbjkofL/weq24eqptApBiNOOhXPx6OY7PwW/DppChglon86w8TX1qicg8Vj1JtQEwgS0KWlNJJUAPQoRMuQX3nbbbV7o2Xrl7zSPxyNJCwnCLYPiEbGGwELwcVirDsI3Z8yYUVOls5hWHcE+huUWzEHs0FKC0FWrEJrP80jeJuIIoUf4KIe16qD3pVVWLbZVB6zwdnLkE48IW0Q3XlIK8hC+ihcy3BbDeBI6HGw1YjYop1UHhXdo9xGsGhuVwxicc7gnpXIek/rbrHHFIaB9Og49XSsCjUtA4rFx+evp9UBAm1I9QNUtK0Zgzpw5vqE74YgWmkgFVkQCBXEQOLSRsIOwVcIfqZyKp4/CNDSvX7x4sSMskzBHeiFab8BgP0e8c/369fPn44EjhDLca7Fc8YgAPuuss7ygtWfnE4+IMzx6rVq18lVjCbldtGiRF5K33nprrRYV1s9x3rx5vrAM5yOwmDMCPCxCowrmwG/lypXu3Xffdc2bN/fVYPHmLl261Oc1kqsIZwr5MO758+f7vMRdd93VewuttUcc8UgRHp5LBV07osQgz0LgIjat32W+8yu2GHUjEWgkAtqnGwm8HisCFSAg8VgBiLpFsghoU0qWPTSaugRoC0F1TsQTImqXXXbxFTavueYa16lTp1oXWM4j3kXaWhCqifBE9PAzvH5bbLFFrWvo44hIxYNJKCZ/7969uw+fJDS2RYsWdcQMrTLCBW0sX5GTw9VW+bdwL8lCOY+XXnqpwzOKCETQ9e/f340bN85RVCZ8EMY7a9YsL+RWrFjh50jIK9Vcw3POVTAH723fvn0dntYBAwbU5DfCf+LEiX4cjJn74gUePXq0e+6557zYo/ck3s044jGqyE1YPCKqEeGMKSw0ebY8j/oESSMB7dNptKrmlBUCEo9ZsXSG5qlNKUPGzsBU8xXMqYbpFyqYUw1z0BhFQAQqS0D7dGV56m4i0JAEJB4bkrae1SAEtCk1CGY9pIEISDw2EGg9RgREoMEIaJ9uMNR6kAhUnIDEY8WR6oaNTUCbUmNbQM+vJAGJx0rS1L1EQASSQED7dBKsoDGIQHkEJB7L46arEkxAm1KCjaOhlUxA4rFkZLpABEQg4QS0TyfcQBqeCOQhIPGo5ZE6AtqUUmdSTUgEREAERCBFBLRPp8iYmkrmCEg8Zs7k6Z+wNqX021gzFAEREAERqF4C2qer13YauQhIPGoNpI6ANqXUmVQTEgEREAERSBEB7dMpMqamkjkCEo+ZM3n6J6xNKf021gxFQAREQASql4D26eq1nUYuAhKPWgOpI6BNKXUm1YREQAREQARSRED7dIqMqalkjoDEY+ZMnv4Ja1NKv401QxEQAREQgeoloH26em2XhpGz/nTEIwDB//777794d9HVIpAQAtqUEmIIDUMEREAEREAEIghon9ayaEwCWn/x6MvzGI+frk4gAX0oJNAoGpIIiIAIiIAI/D8B7dNaCo1JQOsvHn2Jx3j8dHUCCehDIYFG0ZBEQAREQAREQOJRayABBPSeGM8IEo/x+OnqBBLQh0ICjaIhiYAIiIAIiIDEo9ZAAgjoPTGeESQe4/HT1QkkoA+FBBpFQxIBERABERABiUetgQQQ0HtiPCNIPMbjp6sTSEAfCgk0ioYkAiIgAiIgAhKPWgMJIKD3xHhGkHiMx09XJ5CAPhQSaBQNSQREQAREQAQkHrUGEkBA74nxjCDxGI+frk4gAX0oJNAoGpIIiIAIiIAISDxqDSSAgN4T4xlB4jEeP12dQAL6UEigUTQkERABERABEZB41BpIAAG9J8YzgsRjPH66OoEE9KGQQKNoSCIgAiIgAiIg8ag1kAACek+MZwSJx3j8dHUCCehDIYFG0ZBEQAREQAREQOJRayABBPSeGM8IEo/x+OnqBBLQh0ICjaIhiYAIiIAIiIDEo9ZAAgjoPTGeESQe4/HT1QkkoA+FBBpFQxIBERABERABiUetgQQQ0HtiPCNIPMbjp6sTSEAfCgk0ioYkAiIgAiIgAhKPWgMJIKD3xHhGkHiMx09XJ5CAPhQSaBQNSQREQAREQAQkHrUGEkBA74nxjCDxGI+frk4gAX0oJNAoGpIIiIAIiIAISDxqDSSAgN4T4xlB4jEeP12dQAL6UEigUTQkERABERABEZB41BpIAAG9J8YzgsRjPH66OoEE9KGQQKNoSCIgAiIgAiIg8ag1kAACek+MZwSJx3j8dHUCCehDIYFG0ZBEQAREQAREQOJRayABBPSeGM8INeIx3m10tQiIgAiIgAiIgAiIgAiIgAiIQNoJ/B/vH1iFEeQ5mAAAAABJRU5ErkJggg==;movable=1;resizable=1;rotatable=1;deletable=1;editable=1;locked=0;connectable=1;" vertex="1" parent="1">
          <mxGeometry x="403.12" y="760" width="1656.88" height="1351" as="geometry" />
        </mxCell>
        <mxCell id="tuSf0BVARLKbpVUZxoqx-7" style="edgeStyle=orthogonalEdgeStyle;rounded=0;orthogonalLoop=1;jettySize=auto;html=1;entryX=0;entryY=0.25;entryDx=0;entryDy=0;" parent="1" target="MUi1yYkGbGkddvzHHs3n-1" edge="1">
          <mxGeometry relative="1" as="geometry">
            <mxPoint x="470" y="1145" as="sourcePoint" />
          </mxGeometry>
        </mxCell>
        <mxCell id="tuSf0BVARLKbpVUZxoqx-8" style="edgeStyle=orthogonalEdgeStyle;rounded=0;orthogonalLoop=1;jettySize=auto;html=1;exitX=0;exitY=0.75;exitDx=0;exitDy=0;entryX=0;entryY=0.75;entryDx=0;entryDy=0;" parent="1" target="MUi1yYkGbGkddvzHHs3n-1" edge="1">
          <mxGeometry relative="1" as="geometry">
            <mxPoint x="490" y="1175" as="sourcePoint" />
          </mxGeometry>
        </mxCell>
        <mxCell id="tuSf0BVARLKbpVUZxoqx-31" style="edgeStyle=orthogonalEdgeStyle;rounded=0;orthogonalLoop=1;jettySize=auto;html=1;entryX=0.25;entryY=1;entryDx=0;entryDy=0;" parent="1" target="MUi1yYkGbGkddvzHHs3n-1" edge="1">
          <mxGeometry relative="1" as="geometry">
            <mxPoint x="509" y="1220" as="sourcePoint" />
            <Array as="points">
              <mxPoint x="509" y="1220" />
              <mxPoint x="685" y="1220" />
            </Array>
          </mxGeometry>
        </mxCell>
        <mxCell id="tuSf0BVARLKbpVUZxoqx-33" style="edgeStyle=orthogonalEdgeStyle;rounded=0;orthogonalLoop=1;jettySize=auto;html=1;entryX=0.5;entryY=1;entryDx=0;entryDy=0;" parent="1" target="MUi1yYkGbGkddvzHHs3n-1" edge="1">
          <mxGeometry relative="1" as="geometry">
            <mxPoint x="820" y="1220" as="sourcePoint" />
            <Array as="points">
              <mxPoint x="730" y="1220" />
            </Array>
          </mxGeometry>
        </mxCell>
        <mxCell id="tuSf0BVARLKbpVUZxoqx-48" style="edgeStyle=orthogonalEdgeStyle;rounded=0;orthogonalLoop=1;jettySize=auto;html=1;exitX=1;exitY=0.5;exitDx=0;exitDy=0;entryX=0;entryY=0.75;entryDx=0;entryDy=0;" parent="1" source="MUi1yYkGbGkddvzHHs3n-1" target="tuSf0BVARLKbpVUZxoqx-4" edge="1">
          <mxGeometry relative="1" as="geometry">
            <Array as="points">
              <mxPoint x="870" y="1160" />
              <mxPoint x="870" y="1240" />
              <mxPoint x="600" y="1240" />
              <mxPoint x="600" y="1473" />
            </Array>
          </mxGeometry>
        </mxCell>
        <mxCell id="tuSf0BVARLKbpVUZxoqx-58" style="edgeStyle=orthogonalEdgeStyle;rounded=0;orthogonalLoop=1;jettySize=auto;html=1;exitX=1;exitY=0.25;exitDx=0;exitDy=0;entryX=0;entryY=0.25;entryDx=0;entryDy=0;" parent="1" source="MUi1yYkGbGkddvzHHs3n-1" target="tuSf0BVARLKbpVUZxoqx-6" edge="1">
          <mxGeometry relative="1" as="geometry">
            <Array as="points">
              <mxPoint x="1370" y="1145" />
              <mxPoint x="1370" y="1680" />
            </Array>
          </mxGeometry>
        </mxCell>
        <mxCell id="tuSf0BVARLKbpVUZxoqx-68" style="edgeStyle=orthogonalEdgeStyle;rounded=0;orthogonalLoop=1;jettySize=auto;html=1;entryX=0.5;entryY=0;entryDx=0;entryDy=0;" parent="1" target="MUi1yYkGbGkddvzHHs3n-1" edge="1">
          <mxGeometry relative="1" as="geometry">
            <mxPoint x="730" y="1010" as="sourcePoint" />
          </mxGeometry>
        </mxCell>
        <mxCell id="MUi1yYkGbGkddvzHHs3n-1" value="&lt;span style=&quot;font-size: 14px;&quot;&gt;Ввод информации от клиента&lt;/span&gt;" style="html=1;align=center;verticalAlign=top;rounded=1;absoluteArcSize=1;arcSize=10;dashed=0;whiteSpace=wrap;" parent="1" vertex="1">
          <mxGeometry x="640.0000000000001" y="1130" width="180" height="60" as="geometry" />
        </mxCell>
        <mxCell id="tuSf0BVARLKbpVUZxoqx-12" style="edgeStyle=orthogonalEdgeStyle;rounded=0;orthogonalLoop=1;jettySize=auto;html=1;entryX=0.005;entryY=0.598;entryDx=0;entryDy=0;entryPerimeter=0;" parent="1" target="tuSf0BVARLKbpVUZxoqx-3" edge="1">
          <mxGeometry relative="1" as="geometry">
            <mxPoint x="650" y="1310" as="sourcePoint" />
            <Array as="points">
              <mxPoint x="801" y="1310" />
            </Array>
          </mxGeometry>
        </mxCell>
        <mxCell id="tuSf0BVARLKbpVUZxoqx-38" style="edgeStyle=orthogonalEdgeStyle;rounded=0;orthogonalLoop=1;jettySize=auto;html=1;exitX=0;exitY=0.25;exitDx=0;exitDy=0;entryX=0;entryY=0.25;entryDx=0;entryDy=0;" parent="1" target="tuSf0BVARLKbpVUZxoqx-3" edge="1">
          <mxGeometry relative="1" as="geometry">
            <mxPoint x="490" y="1174" as="sourcePoint" />
            <Array as="points">
              <mxPoint x="490" y="1275" />
            </Array>
          </mxGeometry>
        </mxCell>
        <mxCell id="tuSf0BVARLKbpVUZxoqx-41" style="edgeStyle=orthogonalEdgeStyle;rounded=0;orthogonalLoop=1;jettySize=auto;html=1;entryX=0.5;entryY=1;entryDx=0;entryDy=0;" parent="1" target="tuSf0BVARLKbpVUZxoqx-3" edge="1">
          <mxGeometry relative="1" as="geometry">
            <mxPoint x="800" y="1370" as="sourcePoint" />
            <Array as="points">
              <mxPoint x="890" y="1370" />
            </Array>
          </mxGeometry>
        </mxCell>
        <mxCell id="tuSf0BVARLKbpVUZxoqx-45" style="edgeStyle=orthogonalEdgeStyle;rounded=0;orthogonalLoop=1;jettySize=auto;html=1;entryX=0.75;entryY=1;entryDx=0;entryDy=0;" parent="1" edge="1">
          <mxGeometry relative="1" as="geometry">
            <mxPoint x="910" y="1350" as="targetPoint" />
            <mxPoint x="1000" y="1370" as="sourcePoint" />
          </mxGeometry>
        </mxCell>
        <mxCell id="tuSf0BVARLKbpVUZxoqx-46" style="edgeStyle=orthogonalEdgeStyle;rounded=0;orthogonalLoop=1;jettySize=auto;html=1;exitX=1;exitY=0.5;exitDx=0;exitDy=0;entryX=0;entryY=0.25;entryDx=0;entryDy=0;" parent="1" source="tuSf0BVARLKbpVUZxoqx-3" target="tuSf0BVARLKbpVUZxoqx-4" edge="1">
          <mxGeometry relative="1" as="geometry">
            <mxPoint x="830" y="1440" as="targetPoint" />
            <Array as="points">
              <mxPoint x="1030" y="1300" />
              <mxPoint x="1030" y="1400" />
              <mxPoint x="850" y="1400" />
              <mxPoint x="850" y="1438" />
            </Array>
          </mxGeometry>
        </mxCell>
        <mxCell id="tuSf0BVARLKbpVUZxoqx-3" value="&lt;span style=&quot;font-size: 14px;&quot;&gt;&lt;br&gt;&lt;br&gt;Выбор категории номеров&lt;/span&gt;" style="html=1;align=center;verticalAlign=top;rounded=1;absoluteArcSize=1;arcSize=10;dashed=0;whiteSpace=wrap;" parent="1" vertex="1">
          <mxGeometry x="800" y="1250" width="180" height="100" as="geometry" />
        </mxCell>
        <mxCell id="tuSf0BVARLKbpVUZxoqx-49" style="edgeStyle=orthogonalEdgeStyle;rounded=0;orthogonalLoop=1;jettySize=auto;html=1;exitX=0;exitY=0.5;exitDx=0;exitDy=0;entryX=0;entryY=0.5;entryDx=0;entryDy=0;" parent="1" target="tuSf0BVARLKbpVUZxoqx-4" edge="1">
          <mxGeometry relative="1" as="geometry">
            <mxPoint x="650" y="1310" as="sourcePoint" />
            <Array as="points">
              <mxPoint x="650" y="1455" />
            </Array>
          </mxGeometry>
        </mxCell>
        <mxCell id="tuSf0BVARLKbpVUZxoqx-50" style="edgeStyle=orthogonalEdgeStyle;rounded=0;orthogonalLoop=1;jettySize=auto;html=1;exitX=0.5;exitY=1;exitDx=0;exitDy=0;entryX=0.5;entryY=1;entryDx=0;entryDy=0;" parent="1" target="tuSf0BVARLKbpVUZxoqx-4" edge="1">
          <mxGeometry relative="1" as="geometry">
            <mxPoint x="965.3333333333335" y="1570" as="sourcePoint" />
          </mxGeometry>
        </mxCell>
        <mxCell id="tuSf0BVARLKbpVUZxoqx-51" style="edgeStyle=orthogonalEdgeStyle;rounded=0;orthogonalLoop=1;jettySize=auto;html=1;exitX=1;exitY=0.5;exitDx=0;exitDy=0;entryX=0;entryY=0.25;entryDx=0;entryDy=0;" parent="1" source="tuSf0BVARLKbpVUZxoqx-4" target="tuSf0BVARLKbpVUZxoqx-5" edge="1">
          <mxGeometry relative="1" as="geometry" />
        </mxCell>
        <mxCell id="tuSf0BVARLKbpVUZxoqx-4" value="&lt;span style=&quot;font-size: 14px;&quot;&gt;&lt;br&gt;Поиск свободных номеров&lt;/span&gt;" style="html=1;align=center;verticalAlign=top;rounded=1;absoluteArcSize=1;arcSize=10;dashed=0;whiteSpace=wrap;" parent="1" vertex="1">
          <mxGeometry x="870" y="1420" width="190" height="70" as="geometry" />
        </mxCell>
        <mxCell id="tuSf0BVARLKbpVUZxoqx-52" style="edgeStyle=orthogonalEdgeStyle;rounded=0;orthogonalLoop=1;jettySize=auto;html=1;exitX=0;exitY=0.5;exitDx=0;exitDy=0;entryX=0.006;entryY=0.444;entryDx=0;entryDy=0;entryPerimeter=0;" parent="1" target="tuSf0BVARLKbpVUZxoqx-5" edge="1">
          <mxGeometry relative="1" as="geometry">
            <mxPoint x="490" y="1270" as="sourcePoint" />
            <Array as="points">
              <mxPoint x="490" y="1600" />
            </Array>
          </mxGeometry>
        </mxCell>
        <mxCell id="tuSf0BVARLKbpVUZxoqx-53" style="edgeStyle=orthogonalEdgeStyle;rounded=0;orthogonalLoop=1;jettySize=auto;html=1;entryX=0.008;entryY=0.667;entryDx=0;entryDy=0;entryPerimeter=0;" parent="1" target="tuSf0BVARLKbpVUZxoqx-5" edge="1">
          <mxGeometry relative="1" as="geometry">
            <mxPoint x="1100" y="1604" as="targetPoint" />
            <mxPoint x="470" y="1290" as="sourcePoint" />
            <Array as="points">
              <mxPoint x="470" y="1620" />
            </Array>
          </mxGeometry>
        </mxCell>
        <mxCell id="tuSf0BVARLKbpVUZxoqx-57" style="edgeStyle=orthogonalEdgeStyle;rounded=0;orthogonalLoop=1;jettySize=auto;html=1;exitX=1;exitY=0.5;exitDx=0;exitDy=0;entryX=0;entryY=0.75;entryDx=0;entryDy=0;" parent="1" source="tuSf0BVARLKbpVUZxoqx-5" target="tuSf0BVARLKbpVUZxoqx-6" edge="1">
          <mxGeometry relative="1" as="geometry">
            <Array as="points">
              <mxPoint x="1320" y="1605" />
              <mxPoint x="1320" y="1720" />
            </Array>
          </mxGeometry>
        </mxCell>
        <mxCell id="tuSf0BVARLKbpVUZxoqx-62" style="edgeStyle=orthogonalEdgeStyle;rounded=0;orthogonalLoop=1;jettySize=auto;html=1;exitX=0.25;exitY=1;exitDx=0;exitDy=0;entryX=0.25;entryY=1;entryDx=0;entryDy=0;" parent="1" target="tuSf0BVARLKbpVUZxoqx-5" edge="1">
          <mxGeometry relative="1" as="geometry">
            <mxPoint x="1145.095238095238" y="1750" as="sourcePoint" />
          </mxGeometry>
        </mxCell>
        <mxCell id="tuSf0BVARLKbpVUZxoqx-63" style="edgeStyle=orthogonalEdgeStyle;rounded=0;orthogonalLoop=1;jettySize=auto;html=1;exitX=0.75;exitY=1;exitDx=0;exitDy=0;entryX=0.75;entryY=1;entryDx=0;entryDy=0;" parent="1" target="tuSf0BVARLKbpVUZxoqx-5" edge="1">
          <mxGeometry relative="1" as="geometry">
            <mxPoint x="1235.095238095238" y="1750" as="sourcePoint" />
          </mxGeometry>
        </mxCell>
        <mxCell id="tuSf0BVARLKbpVUZxoqx-5" value="&lt;span style=&quot;font-size: 14px;&quot;&gt;&lt;br&gt;&lt;br&gt;Выбор номера&lt;/span&gt;" style="html=1;align=center;verticalAlign=top;rounded=1;absoluteArcSize=1;arcSize=10;dashed=0;whiteSpace=wrap;" parent="1" vertex="1">
          <mxGeometry x="1100" y="1560" width="180" height="90" as="geometry" />
        </mxCell>
        <mxCell id="tuSf0BVARLKbpVUZxoqx-59" style="edgeStyle=orthogonalEdgeStyle;rounded=0;orthogonalLoop=1;jettySize=auto;html=1;exitX=0;exitY=0.5;exitDx=0;exitDy=0;entryX=0;entryY=0.5;entryDx=0;entryDy=0;" parent="1" target="tuSf0BVARLKbpVUZxoqx-6" edge="1">
          <mxGeometry relative="1" as="geometry">
            <mxPoint x="870" y="1230" as="sourcePoint" />
            <Array as="points">
              <mxPoint x="870" y="1240" />
              <mxPoint x="1350" y="1240" />
              <mxPoint x="1350" y="1700" />
            </Array>
          </mxGeometry>
        </mxCell>
        <mxCell id="tuSf0BVARLKbpVUZxoqx-60" style="edgeStyle=orthogonalEdgeStyle;rounded=0;orthogonalLoop=1;jettySize=auto;html=1;exitX=1;exitY=0.5;exitDx=0;exitDy=0;entryX=-0.011;entryY=0.442;entryDx=0;entryDy=0;entryPerimeter=0;" parent="1" source="tuSf0BVARLKbpVUZxoqx-6" edge="1" target="FX8J6G3fWPX2P3Sihh6O-1">
          <mxGeometry relative="1" as="geometry">
            <mxPoint x="1690" y="1700" as="targetPoint" />
          </mxGeometry>
        </mxCell>
        <mxCell id="tuSf0BVARLKbpVUZxoqx-64" style="edgeStyle=orthogonalEdgeStyle;rounded=0;orthogonalLoop=1;jettySize=auto;html=1;entryX=0.5;entryY=1;entryDx=0;entryDy=0;" parent="1" target="tuSf0BVARLKbpVUZxoqx-6" edge="1">
          <mxGeometry relative="1" as="geometry">
            <mxPoint x="1480" y="1770" as="sourcePoint" />
          </mxGeometry>
        </mxCell>
        <mxCell id="tuSf0BVARLKbpVUZxoqx-6" value="&lt;span style=&quot;font-size: 14px;&quot;&gt;&lt;br&gt;Осуществление&amp;nbsp;&lt;br&gt;бронирования&lt;/span&gt;" style="html=1;align=center;verticalAlign=top;rounded=1;absoluteArcSize=1;arcSize=10;dashed=0;whiteSpace=wrap;" parent="1" vertex="1">
          <mxGeometry x="1390" y="1660" width="180" height="80" as="geometry" />
        </mxCell>
        <mxCell id="tuSf0BVARLKbpVUZxoqx-9" value="&lt;font style=&quot;font-size: 11px;&quot;&gt;Идентификатор администратора&lt;/font&gt;" style="text;html=1;strokeColor=none;fillColor=none;align=center;verticalAlign=middle;whiteSpace=wrap;rounded=0;" parent="1" vertex="1">
          <mxGeometry x="530" y="1130" width="60" height="30" as="geometry" />
        </mxCell>
        <mxCell id="tuSf0BVARLKbpVUZxoqx-10" value="&lt;font style=&quot;font-size: 11px;&quot;&gt;Идентификатор&lt;br style=&quot;font-size: 11px;&quot;&gt;клиента&lt;br style=&quot;font-size: 11px;&quot;&gt;&lt;/font&gt;" style="text;html=1;strokeColor=none;fillColor=none;align=center;verticalAlign=middle;whiteSpace=wrap;rounded=0;fontSize=11;" parent="1" vertex="1">
          <mxGeometry x="530" y="1160" width="60" height="30" as="geometry" />
        </mxCell>
        <mxCell id="tuSf0BVARLKbpVUZxoqx-14" value="&lt;font style=&quot;font-size: 11px;&quot;&gt;Данные о гостинице&lt;br style=&quot;font-size: 11px;&quot;&gt;&lt;/font&gt;" style="text;html=1;strokeColor=none;fillColor=none;align=center;verticalAlign=middle;whiteSpace=wrap;rounded=0;fontSize=11;" parent="1" vertex="1">
          <mxGeometry x="665" y="1290" width="120" height="30" as="geometry" />
        </mxCell>
        <mxCell id="tuSf0BVARLKbpVUZxoqx-24" value="&lt;font style=&quot;font-size: 11px;&quot;&gt;Выбранные категории номеров&lt;br style=&quot;font-size: 11px;&quot;&gt;&lt;/font&gt;" style="text;html=1;strokeColor=none;fillColor=none;align=center;verticalAlign=middle;whiteSpace=wrap;rounded=0;fontSize=11;" parent="1" vertex="1">
          <mxGeometry x="850" y="1380" width="170" height="30" as="geometry" />
        </mxCell>
        <mxCell id="tuSf0BVARLKbpVUZxoqx-25" value="&lt;font style=&quot;font-size: 11px;&quot;&gt;Личные данные клиента&lt;br style=&quot;font-size: 11px;&quot;&gt;&lt;/font&gt;" style="text;html=1;strokeColor=none;fillColor=none;align=center;verticalAlign=middle;whiteSpace=wrap;rounded=0;fontSize=11;" parent="1" vertex="1">
          <mxGeometry x="910" y="1120" width="170" height="30" as="geometry" />
        </mxCell>
        <mxCell id="tuSf0BVARLKbpVUZxoqx-26" value="&lt;font style=&quot;font-size: 11px;&quot;&gt;Даты проживания&lt;br style=&quot;font-size: 11px;&quot;&gt;&lt;/font&gt;" style="text;html=1;strokeColor=none;fillColor=none;align=center;verticalAlign=middle;whiteSpace=wrap;rounded=0;fontSize=11;" parent="1" vertex="1">
          <mxGeometry x="600" y="1450" width="170" height="30" as="geometry" />
        </mxCell>
        <mxCell id="tuSf0BVARLKbpVUZxoqx-27" value="&lt;font style=&quot;font-size: 11px;&quot;&gt;Доступные &lt;br&gt;номера&lt;br style=&quot;font-size: 11px;&quot;&gt;&lt;/font&gt;" style="text;html=1;strokeColor=none;fillColor=none;align=center;verticalAlign=middle;whiteSpace=wrap;rounded=0;fontSize=11;rotation=-90;" parent="1" vertex="1">
          <mxGeometry x="996" y="1500" width="170" height="30" as="geometry" />
        </mxCell>
        <mxCell id="tuSf0BVARLKbpVUZxoqx-28" value="&lt;font style=&quot;font-size: 11px;&quot;&gt;Выбранный &lt;br&gt;номер&lt;br style=&quot;font-size: 11px;&quot;&gt;&lt;/font&gt;" style="text;html=1;strokeColor=none;fillColor=none;align=center;verticalAlign=middle;whiteSpace=wrap;rounded=0;fontSize=11;rotation=-90;" parent="1" vertex="1">
          <mxGeometry x="1235" y="1650" width="170" height="30" as="geometry" />
        </mxCell>
        <mxCell id="tuSf0BVARLKbpVUZxoqx-30" value="&lt;font style=&quot;font-size: 11px;&quot;&gt;Система&lt;br style=&quot;font-size: 11px;&quot;&gt;&lt;/font&gt;" style="text;html=1;strokeColor=none;fillColor=none;align=center;verticalAlign=middle;whiteSpace=wrap;rounded=0;fontSize=11;rotation=-90;" parent="1" vertex="1">
          <mxGeometry x="875" y="1520" width="170" height="30" as="geometry" />
        </mxCell>
        <mxCell id="tuSf0BVARLKbpVUZxoqx-32" value="&lt;font style=&quot;font-size: 11px;&quot;&gt;Администратор&lt;br style=&quot;font-size: 11px;&quot;&gt;&lt;/font&gt;" style="text;html=1;strokeColor=none;fillColor=none;align=center;verticalAlign=middle;whiteSpace=wrap;rounded=0;fontSize=11;" parent="1" vertex="1">
          <mxGeometry x="510" y="1200" width="170" height="30" as="geometry" />
        </mxCell>
        <mxCell id="tuSf0BVARLKbpVUZxoqx-34" value="&lt;font style=&quot;font-size: 11px;&quot;&gt;Клиент&lt;br style=&quot;font-size: 11px;&quot;&gt;&lt;/font&gt;" style="text;html=1;strokeColor=none;fillColor=none;align=center;verticalAlign=middle;whiteSpace=wrap;rounded=0;fontSize=11;" parent="1" vertex="1">
          <mxGeometry x="690" y="1200" width="170" height="30" as="geometry" />
        </mxCell>
        <mxCell id="tuSf0BVARLKbpVUZxoqx-39" value="" style="endArrow=classic;html=1;rounded=0;entryX=0.006;entryY=0.395;entryDx=0;entryDy=0;entryPerimeter=0;" parent="1" target="tuSf0BVARLKbpVUZxoqx-3" edge="1">
          <mxGeometry width="50" height="50" relative="1" as="geometry">
            <mxPoint x="470" y="1144" as="sourcePoint" />
            <mxPoint x="880" y="1230" as="targetPoint" />
            <Array as="points">
              <mxPoint x="470" y="1290" />
            </Array>
          </mxGeometry>
        </mxCell>
        <mxCell id="tuSf0BVARLKbpVUZxoqx-42" value="&lt;font style=&quot;font-size: 11px;&quot;&gt;Клиент&lt;br style=&quot;font-size: 11px;&quot;&gt;&lt;/font&gt;" style="text;html=1;strokeColor=none;fillColor=none;align=center;verticalAlign=middle;whiteSpace=wrap;rounded=0;fontSize=11;" parent="1" vertex="1">
          <mxGeometry x="790" y="1350" width="110" height="30" as="geometry" />
        </mxCell>
        <mxCell id="tuSf0BVARLKbpVUZxoqx-44" value="&lt;font style=&quot;font-size: 11px;&quot;&gt;Администратор&lt;br style=&quot;font-size: 11px;&quot;&gt;&lt;/font&gt;" style="text;html=1;strokeColor=none;fillColor=none;align=center;verticalAlign=middle;whiteSpace=wrap;rounded=0;fontSize=11;" parent="1" vertex="1">
          <mxGeometry x="930" y="1350" width="60" height="30" as="geometry" />
        </mxCell>
        <mxCell id="tuSf0BVARLKbpVUZxoqx-54" value="" style="endArrow=classic;html=1;rounded=0;entryX=-0.029;entryY=0.848;entryDx=0;entryDy=0;entryPerimeter=0;" parent="1" edge="1">
          <mxGeometry width="50" height="50" relative="1" as="geometry">
            <mxPoint x="940" y="1636" as="sourcePoint" />
            <mxPoint x="1100" y="1636.3200000000002" as="targetPoint" />
          </mxGeometry>
        </mxCell>
        <mxCell id="tuSf0BVARLKbpVUZxoqx-55" value="&lt;font style=&quot;font-size: 11px;&quot;&gt;Прайс-лист на &lt;br&gt;номера&lt;br style=&quot;font-size: 11px;&quot;&gt;&lt;/font&gt;" style="text;html=1;strokeColor=none;fillColor=none;align=center;verticalAlign=middle;whiteSpace=wrap;rounded=0;fontSize=11;" parent="1" vertex="1">
          <mxGeometry x="940" y="1620" width="170" height="30" as="geometry" />
        </mxCell>
        <mxCell id="tuSf0BVARLKbpVUZxoqx-61" value="&lt;font style=&quot;font-size: 11px;&quot;&gt;Данные о&lt;br&gt;бронировании&lt;br style=&quot;font-size: 11px;&quot;&gt;&lt;/font&gt;" style="text;html=1;strokeColor=none;fillColor=none;align=center;verticalAlign=middle;whiteSpace=wrap;rounded=0;fontSize=11;" parent="1" vertex="1">
          <mxGeometry x="1590" y="1685" width="170" height="30" as="geometry" />
        </mxCell>
        <mxCell id="tuSf0BVARLKbpVUZxoqx-65" value="&lt;font style=&quot;font-size: 11px;&quot;&gt;Система&lt;br style=&quot;font-size: 11px;&quot;&gt;&lt;/font&gt;" style="text;html=1;strokeColor=none;fillColor=none;align=center;verticalAlign=middle;whiteSpace=wrap;rounded=0;fontSize=11;rotation=0;" parent="1" vertex="1">
          <mxGeometry x="1570" y="1745" width="170" height="30" as="geometry" />
        </mxCell>
        <mxCell id="tuSf0BVARLKbpVUZxoqx-66" value="&lt;font style=&quot;font-size: 11px;&quot;&gt;Клиент&lt;br style=&quot;font-size: 11px;&quot;&gt;&lt;/font&gt;" style="text;html=1;strokeColor=none;fillColor=none;align=center;verticalAlign=middle;whiteSpace=wrap;rounded=0;fontSize=11;rotation=-90;" parent="1" vertex="1">
          <mxGeometry x="1080" y="1690" width="110" height="30" as="geometry" />
        </mxCell>
        <mxCell id="tuSf0BVARLKbpVUZxoqx-67" value="&lt;font style=&quot;font-size: 11px;&quot;&gt;Администратор&lt;br style=&quot;font-size: 11px;&quot;&gt;&lt;/font&gt;" style="text;html=1;strokeColor=none;fillColor=none;align=center;verticalAlign=middle;whiteSpace=wrap;rounded=0;fontSize=11;rotation=-90;" parent="1" vertex="1">
          <mxGeometry x="1200" y="1685" width="60" height="30" as="geometry" />
        </mxCell>
        <mxCell id="tuSf0BVARLKbpVUZxoqx-69" value="&lt;font style=&quot;font-size: 11px;&quot;&gt;Пользовательское&lt;br&gt;соглашение&lt;br style=&quot;font-size: 11px;&quot;&gt;&lt;/font&gt;" style="text;html=1;strokeColor=none;fillColor=none;align=center;verticalAlign=middle;whiteSpace=wrap;rounded=0;fontSize=11;rotation=-90;" parent="1" vertex="1">
          <mxGeometry x="645" y="1050" width="170" height="30" as="geometry" />
        </mxCell>
        <mxCell id="FX8J6G3fWPX2P3Sihh6O-3" style="edgeStyle=orthogonalEdgeStyle;rounded=0;orthogonalLoop=1;jettySize=auto;html=1;exitX=1;exitY=0.5;exitDx=0;exitDy=0;" edge="1" parent="1" source="FX8J6G3fWPX2P3Sihh6O-1">
          <mxGeometry relative="1" as="geometry">
            <mxPoint x="2040" y="1705.1379310344828" as="targetPoint" />
          </mxGeometry>
        </mxCell>
        <mxCell id="FX8J6G3fWPX2P3Sihh6O-6" style="edgeStyle=orthogonalEdgeStyle;rounded=0;orthogonalLoop=1;jettySize=auto;html=1;entryX=0.5;entryY=1;entryDx=0;entryDy=0;" edge="1" parent="1" target="FX8J6G3fWPX2P3Sihh6O-1">
          <mxGeometry relative="1" as="geometry">
            <mxPoint x="1480" y="1770" as="sourcePoint" />
            <Array as="points">
              <mxPoint x="1480" y="1770" />
              <mxPoint x="1840" y="1770" />
            </Array>
          </mxGeometry>
        </mxCell>
        <mxCell id="FX8J6G3fWPX2P3Sihh6O-1" value="&lt;span style=&quot;font-size: 14px;&quot;&gt;&lt;br&gt;Формирование отчета&lt;br&gt;&lt;/span&gt;" style="html=1;align=center;verticalAlign=top;rounded=1;absoluteArcSize=1;arcSize=10;dashed=0;whiteSpace=wrap;" vertex="1" parent="1">
          <mxGeometry x="1750" y="1665" width="180" height="80" as="geometry" />
        </mxCell>
        <mxCell id="FX8J6G3fWPX2P3Sihh6O-2" value="" style="endArrow=classic;html=1;rounded=0;" edge="1" parent="1">
          <mxGeometry width="50" height="50" relative="1" as="geometry">
            <mxPoint x="1630" y="1700" as="sourcePoint" />
            <mxPoint x="1710" y="1740" as="targetPoint" />
            <Array as="points">
              <mxPoint x="1630" y="1740" />
            </Array>
          </mxGeometry>
        </mxCell>
        <mxCell id="FX8J6G3fWPX2P3Sihh6O-4" value="&lt;font style=&quot;font-size: 11px;&quot;&gt;Отчет о &lt;br&gt;бронировании&lt;br style=&quot;font-size: 11px;&quot;&gt;&lt;/font&gt;" style="text;html=1;strokeColor=none;fillColor=none;align=center;verticalAlign=middle;whiteSpace=wrap;rounded=0;fontSize=11;" vertex="1" parent="1">
          <mxGeometry x="1890" y="1690" width="170" height="30" as="geometry" />
        </mxCell>
        <mxCell id="FX8J6G3fWPX2P3Sihh6O-8" value="211" style="text;html=1;strokeColor=none;fillColor=none;align=center;verticalAlign=middle;whiteSpace=wrap;rounded=0;" vertex="1" parent="1">
          <mxGeometry x="770" y="1160" width="60" height="30" as="geometry" />
        </mxCell>
        <mxCell id="FX8J6G3fWPX2P3Sihh6O-9" value="212" style="text;html=1;strokeColor=none;fillColor=none;align=center;verticalAlign=middle;whiteSpace=wrap;rounded=0;" vertex="1" parent="1">
          <mxGeometry x="935" y="1320" width="60" height="30" as="geometry" />
        </mxCell>
        <mxCell id="FX8J6G3fWPX2P3Sihh6O-10" value="213" style="text;html=1;strokeColor=none;fillColor=none;align=center;verticalAlign=middle;whiteSpace=wrap;rounded=0;" vertex="1" parent="1">
          <mxGeometry x="1010" y="1470" width="60" height="30" as="geometry" />
        </mxCell>
        <mxCell id="FX8J6G3fWPX2P3Sihh6O-11" value="214" style="text;html=1;strokeColor=none;fillColor=none;align=center;verticalAlign=middle;whiteSpace=wrap;rounded=0;" vertex="1" parent="1">
          <mxGeometry x="1230" y="1630" width="60" height="30" as="geometry" />
        </mxCell>
        <mxCell id="FX8J6G3fWPX2P3Sihh6O-12" value="215" style="text;html=1;strokeColor=none;fillColor=none;align=center;verticalAlign=middle;whiteSpace=wrap;rounded=0;" vertex="1" parent="1">
          <mxGeometry x="1520" y="1715" width="60" height="30" as="geometry" />
        </mxCell>
        <mxCell id="FX8J6G3fWPX2P3Sihh6O-13" value="216" style="text;html=1;strokeColor=none;fillColor=none;align=center;verticalAlign=middle;whiteSpace=wrap;rounded=0;" vertex="1" parent="1">
          <mxGeometry x="1880" y="1720" width="60" height="30" as="geometry" />
        </mxCell>
      </root>
    </mxGraphModel>
  </diagram>
  <diagram id="30CSTh-y9SVbLgZfz-_A" name="Страница — 2">
    <mxGraphModel dx="5413" dy="2800" grid="1" gridSize="10" guides="1" tooltips="1" connect="1" arrows="1" fold="1" page="1" pageScale="1" pageWidth="3300" pageHeight="2339" math="0" shadow="0">
      <root>
        <mxCell id="0" />
        <mxCell id="1" parent="0" />
      </root>
    </mxGraphModel>
  </diagram>
</mxfile>
